<svg xmlns="http://www.w3.org/2000/svg" width="86" height="107" fill="none"><path d="M0 10C0 4.477 4.477 0 10 0h54l19.071 19.071A10 10 0 0186 26.142V97c0 5.523-4.477 10-10 10H10c-5.523 0-10-4.477-10-10V10z" fill="#DCF5F9"/><path d="M0 10C0 4.477 4.477 0 10 0h54l22 22v10H0V10z" fill="#47C3D4"/><path d="M45.803 21.389v-5.86H40.91v2.159h2.041v2.617c-.084.045-.192.11-.322.195-.124.078-.29.153-.498.225-.209.071-.485.107-.83.107a2.96 2.96 0 01-1.123-.195 1.84 1.84 0 01-.781-.655c-.202-.3-.355-.686-.46-1.162-.104-.475-.156-1.048-.156-1.718V14.66c0-.677.046-1.25.137-1.719.091-.468.231-.853.42-1.152.189-.3.423-.514.703-.644a2.22 2.22 0 01.986-.205c.437 0 .791.074 1.065.224.273.143.485.384.635.723.156.338.257.807.302 1.406h2.764c-.072-1.022-.286-1.885-.645-2.588a3.522 3.522 0 00-1.562-1.592c-.684-.358-1.56-.537-2.627-.537-.775 0-1.471.124-2.09.371a4.126 4.126 0 00-1.582 1.133c-.443.508-.781 1.146-1.015 1.914-.228.762-.342 1.657-.342 2.686v2.422c0 1.041.12 1.943.361 2.705.24.755.59 1.386 1.045 1.894a4.36 4.36 0 001.65 1.123c.645.248 1.361.371 2.149.371.892 0 1.647-.104 2.265-.312.625-.215 1.13-.462 1.514-.742.39-.287.687-.537.889-.752z" fill="#fff"/><path fill-rule="evenodd" clip-rule="evenodd" d="M27.629 17.99h1.992c.957 0 1.777-.185 2.461-.556a3.86 3.86 0 001.592-1.573c.37-.677.556-1.471.556-2.383 0-.91-.185-1.718-.556-2.421a4.032 4.032 0 00-1.582-1.67c-.69-.404-1.514-.606-2.47-.606h-4.845V23h2.852v-5.01zm0-2.373h1.982c.417 0 .752-.091 1.006-.273.254-.182.44-.433.557-.752.117-.326.176-.69.176-1.094 0-.41-.059-.794-.176-1.152a1.849 1.849 0 00-.557-.86c-.254-.221-.586-.332-.996-.332H27.63v4.463z" fill="#fff"/><path d="M19.65 18.615V8.781h2.852v9.834c0 .95-.182 1.771-.547 2.461-.358.684-.846 1.208-1.465 1.572-.618.365-1.315.547-2.09.547-.794 0-1.503-.156-2.128-.468-.619-.32-1.107-.805-1.465-1.456-.358-.65-.537-1.474-.537-2.47h2.87c0 .508.053.908.157 1.201.104.293.25.505.44.635.195.13.416.195.663.195a.934.934 0 00.674-.264c.189-.175.332-.426.43-.752.098-.332.146-.732.146-1.2zM9.67 20.53c-.287.286-.43.644-.43 1.073 0 .43.143.788.43 1.075.286.286.674.43 1.162.43.488 0 .876-.144 1.162-.43.287-.287.43-.645.43-1.075 0-.43-.143-.787-.43-1.074-.286-.293-.674-.44-1.162-.44-.488 0-.876.147-1.162.44z" fill="#fff"/><path d="M65 1l21 21v1H75c-5.523 0-10-4.477-10-10V1z" fill="#2D909E"/><path d="M64 0l22 22H74c-5.523 0-10-4.477-10-10V0z" fill="#80E6F4"/><path d="M60 45.542A2.531 2.531 0 0057.48 43H11.52A2.531 2.531 0 009 45.542v27.916A2.531 2.531 0 0011.52 76h45.96A2.531 2.531 0 0060 73.458V45.542zM57.464 60.12l-7.05-5.164a1.223 1.223 0 00-2.144.053l-8.757 10.714-9.778-5.875c-.447-.548-1.31-.618-1.843-.155L11.536 70.386V45.558h45.928V60.12zM18.152 48.799c-2.095 0-3.792 1.712-3.792 3.824 0 2.113 1.697 3.825 3.792 3.825 2.094 0 3.792-1.712 3.792-3.825 0-2.112-1.698-3.824-3.792-3.824z" fill="#83DDE9"/><path d="M72.01 95.965l.004.004.004.005a.466.466 0 00.012.012l.016.015.017.015a.55.55 0 00.016.015l.017.014.017.014.018.013.017.013a.334.334 0 00.019.012c.006.004.011.008.018.011l.02.012.017.01.02.01c.006.003.011.007.017.009l.022.01.016.007.024.01.015.006a.308.308 0 00.025.008l.015.005a.519.519 0 00.026.008l.014.004.027.006.013.003.029.005.012.002.03.004.011.001c.01.002.021.002.032.003h.01a.71.71 0 00.04.002l.041-.001a.06.06 0 00.009-.001l.033-.003.011-.001.03-.004.012-.002a3.898 3.898 0 00.041-.008l.027-.006.015-.004.025-.007.015-.005.024-.009a.66.66 0 00.016-.006l.023-.01c.006-.001.011-.004.017-.006l.022-.01a.336.336 0 00.017-.009l.02-.01c.006-.004.011-.008.017-.01l.02-.012.017-.011.019-.013.017-.012.017-.013.018-.014.017-.014.016-.014.017-.016a.272.272 0 00.015-.015l.013-.012.004-.005.004-.004 4.025-4.275a.927.927 0 00-.009-1.268.829.829 0 00-1.21.009l-2.559 2.717v-8.252c0-.496-.383-.897-.856-.897s-.856.401-.856.897v8.251l-2.559-2.718a.829.829 0 00-1.21-.008.927.927 0 00-.009 1.268l4.025 4.275h-.001z" fill="#2395FF"/><path d="M79.382 95.275c-.472 0-.856.402-.856.897 0 1.122-.87 2.034-1.94 2.034h-7.932c-1.07 0-1.942-.912-1.942-2.034 0-.495-.383-.897-.856-.897s-.856.402-.856.897c0 2.111 1.64 3.828 3.654 3.828h7.93c2.015 0 3.654-1.717 3.654-3.828 0-.495-.383-.897-.856-.897z" fill="#2395FF"/></svg>