<svg xmlns="http://www.w3.org/2000/svg" width="86" height="107" fill="none"><path d="M0 10C0 4.477 4.477 0 10 0h54l19.071 19.071A10 10 0 0186 26.142V97c0 5.523-4.477 10-10 10H10c-5.523 0-10-4.477-10-10V10z" fill="#E7F3FF"/><path d="M0 10C0 4.477 4.477 0 10 0h54l22 22v10H0V10z" fill="#2395FF"/><path d="M47.97 18.264h-2.84c-.02.683-.101 1.21-.244 1.582-.143.37-.365.628-.664.771-.293.143-.68.215-1.162.215-.417 0-.762-.068-1.036-.205a1.472 1.472 0 01-.634-.654c-.157-.3-.27-.684-.342-1.153a11.753 11.753 0 01-.107-1.718V14.67c0-.684.038-1.263.117-1.738.084-.476.215-.86.39-1.153.176-.293.4-.504.674-.634.273-.137.6-.205.977-.205.508 0 .905.08 1.191.244.286.156.495.43.625.82.137.384.212.915.225 1.592H48c-.078-1.075-.31-1.983-.693-2.725a3.94 3.94 0 00-1.612-1.709c-.696-.39-1.562-.586-2.597-.586-.775 0-1.472.134-2.09.4a4.143 4.143 0 00-1.573 1.172c-.43.515-.761 1.153-.995 1.915-.228.761-.342 1.637-.342 2.627v2.412c0 .99.107 1.865.322 2.627.221.755.547 1.39.977 1.904a4.2 4.2 0 001.562 1.172c.612.26 1.312.39 2.1.39 1.015 0 1.881-.189 2.597-.566a3.914 3.914 0 001.67-1.66c.39-.736.606-1.638.645-2.705z" fill="#fff"/><path fill-rule="evenodd" clip-rule="evenodd" d="M36.272 17.16v-2.373c0-1.029-.124-1.927-.372-2.695-.24-.775-.589-1.42-1.044-1.934a4.358 4.358 0 00-1.622-1.172c-.625-.267-1.318-.4-2.08-.4-.761 0-1.455.133-2.08.4a4.358 4.358 0 00-1.62 1.172c-.457.514-.805 1.16-1.046 1.934-.24.768-.361 1.666-.361 2.695v2.373c0 1.003.124 1.882.371 2.637.247.749.596 1.377 1.045 1.885.456.5.996.879 1.621 1.133a5.57 5.57 0 002.09.38c.762 0 1.455-.127 2.08-.38a4.218 4.218 0 001.611-1.133c.45-.508.794-1.136 1.035-1.885.248-.755.372-1.634.372-2.637zm-2.842-2.392v2.392c0 .651-.05 1.208-.147 1.67-.098.462-.24.84-.43 1.133a1.801 1.801 0 01-.712.654c-.28.137-.603.205-.967.205-.371 0-.7-.068-.986-.205a1.892 1.892 0 01-.713-.654c-.196-.293-.342-.67-.44-1.133-.098-.462-.146-1.019-.146-1.67v-2.392c0-.678.045-1.254.136-1.729.098-.482.241-.876.43-1.182.195-.306.433-.53.713-.673.286-.144.615-.215.986-.215s.697.071.977.215c.28.143.517.367.713.673.195.306.341.7.44 1.182.097.475.146 1.052.146 1.729zM18.684 23h-3.711V8.781h3.75c.82 0 1.565.134 2.236.4.67.268 1.247.658 1.729 1.173.481.507.852 1.136 1.113 1.884.26.749.39 1.602.39 2.559v2.197c0 .964-.13 1.817-.39 2.559-.26.742-.632 1.37-1.113 1.884a4.685 4.685 0 01-1.729 1.163c-.677.266-1.436.4-2.275.4zm0-2.363h-.85v-9.483h.889c.501 0 .92.069 1.26.205.338.137.608.349.81.635.202.28.345.651.43 1.113.084.456.127 1.013.127 1.67v2.217c0 .866-.082 1.566-.245 2.1-.156.534-.426.924-.81 1.172-.384.247-.921.37-1.611.37z" fill="#fff"/><path d="M9.67 20.53c-.287.286-.43.644-.43 1.073 0 .43.143.788.43 1.075.286.286.674.43 1.162.43.488 0 .876-.144 1.162-.43.287-.287.43-.645.43-1.075 0-.43-.143-.787-.43-1.074-.286-.293-.674-.44-1.162-.44-.488 0-.876.147-1.162.44z" fill="#fff"/><path d="M65 1l21 21v1H75c-5.523 0-10-4.477-10-10V1z" fill="#356EA2"/><path d="M64 0l22 22H74c-5.523 0-10-4.477-10-10V0z" fill="#63B4FF"/><path d="M9 45.5a3.5 3.5 0 013.5-3.5h49a3.5 3.5 0 110 7h-49A3.5 3.5 0 019 45.5zm0 14a3.5 3.5 0 013.5-3.5h39.523a3.5 3.5 0 110 7H12.5A3.5 3.5 0 019 59.5zm0 14a3.5 3.5 0 013.5-3.5h29.185a3.5 3.5 0 110 7H12.5A3.5 3.5 0 019 73.5z" fill="#A1C9F2"/><path d="M72.01 95.965l.004.004.004.005a.466.466 0 00.012.012l.016.015.017.015a.55.55 0 00.016.015l.017.014.017.014.018.013.017.013a.334.334 0 00.019.012c.006.004.011.008.018.011l.02.012.017.01.02.01c.006.003.011.007.017.009l.022.01.016.007.024.01.015.006a.308.308 0 00.025.008l.015.005a.519.519 0 00.026.008l.014.004.027.006.013.003.029.005.012.002.03.004.011.001c.01.002.021.002.032.003h.01a.71.71 0 00.04.002l.041-.001a.06.06 0 00.009-.001l.033-.003.011-.001.03-.004.012-.002a3.898 3.898 0 00.041-.008l.027-.006.015-.004.025-.007.015-.005.024-.009a.66.66 0 00.016-.006l.023-.01c.006-.001.011-.004.017-.006l.022-.01a.336.336 0 00.017-.009l.02-.01c.006-.004.011-.008.017-.01l.02-.012.017-.011.019-.013.017-.012.017-.013.018-.014.017-.014.016-.014.017-.016a.272.272 0 00.015-.015l.013-.012.004-.005.004-.004 4.025-4.275a.927.927 0 00-.009-1.268.829.829 0 00-1.21.009l-2.559 2.717v-8.252c0-.496-.383-.897-.856-.897s-.856.401-.856.897v8.251l-2.559-2.718a.829.829 0 00-1.21-.008.927.927 0 00-.009 1.268l4.025 4.275h-.001z" fill="#2395FF"/><path d="M79.382 95.275c-.472 0-.856.402-.856.897 0 1.122-.87 2.034-1.94 2.034h-7.932c-1.07 0-1.942-.912-1.942-2.034 0-.495-.383-.897-.856-.897s-.856.402-.856.897c0 2.111 1.64 3.828 3.654 3.828h7.93c2.015 0 3.654-1.717 3.654-3.828 0-.495-.383-.897-.856-.897z" fill="#2395FF"/></svg>