<svg xmlns="http://www.w3.org/2000/svg" width="105" height="15" fill="none"><path d="M16.487 14.735v-7.71c0-2.187-1.159-3.225-3.103-3.225-1.618 0-3.016.972-3.628 1.944C9.363 4.529 8.379 3.8 6.828 3.8c-1.617 0-3.016 1.016-3.453 1.656V4.065H.6v10.67h2.775v-7.18C3.79 6.96 4.599 6.296 5.56 6.296c1.137 0 1.574.707 1.574 1.7v6.739H9.93V7.533c.393-.574 1.202-1.237 2.185-1.237 1.136 0 1.573.707 1.573 1.7v6.739h2.798z" fill="#fff"/><path d="M16.487 14.735v-7.71c0-2.187-1.159-3.225-3.103-3.225-1.618 0-3.016.972-3.628 1.944C9.363 4.529 8.379 3.8 6.828 3.8c-1.617 0-3.016 1.016-3.453 1.656V4.065H.6v10.67h2.775v-7.18C3.79 6.96 4.599 6.296 5.56 6.296c1.137 0 1.574.707 1.574 1.7v6.739H9.93V7.533c.393-.574 1.202-1.237 2.185-1.237 1.136 0 1.573.707 1.573 1.7v6.739h2.798z" fill="url(#paint0_linear_2123_6199)"/><path d="M24.104 15c3.496 0 5.594-2.563 5.594-5.611 0-3.027-2.098-5.59-5.594-5.59-3.475 0-5.573 2.563-5.573 5.59 0 3.048 2.098 5.61 5.573 5.61zm0-2.496c-1.727 0-2.688-1.436-2.688-3.115 0-1.657.961-3.093 2.688-3.093 1.726 0 2.71 1.436 2.71 3.093 0 1.679-.984 3.115-2.71 3.115z" fill="#fff"/><path d="M24.104 15c3.496 0 5.594-2.563 5.594-5.611 0-3.027-2.098-5.59-5.594-5.59-3.475 0-5.573 2.563-5.573 5.59 0 3.048 2.098 5.61 5.573 5.61zm0-2.496c-1.727 0-2.688-1.436-2.688-3.115 0-1.657.961-3.093 2.688-3.093 1.726 0 2.71 1.436 2.71 3.093 0 1.679-.984 3.115-2.71 3.115z" fill="url(#paint1_linear_2123_6199)"/><path d="M41.656 14.735V7.202c0-2.077-1.114-3.402-3.43-3.402-1.727 0-3.016.839-3.694 1.656V4.065h-2.775v10.67h2.775v-7.18c.46-.64 1.311-1.259 2.404-1.259 1.18 0 1.945.508 1.945 1.988v6.45h2.775z" fill="#fff"/><path d="M41.656 14.735V7.202c0-2.077-1.114-3.402-3.43-3.402-1.727 0-3.016.839-3.694 1.656V4.065h-2.775v10.67h2.775v-7.18c.46-.64 1.311-1.259 2.404-1.259 1.18 0 1.945.508 1.945 1.988v6.45h2.775z" fill="url(#paint2_linear_2123_6199)"/><path d="M49.307 15c3.496 0 5.594-2.563 5.594-5.611 0-3.027-2.098-5.59-5.594-5.59-3.475 0-5.573 2.563-5.573 5.59 0 3.048 2.098 5.61 5.573 5.61zm0-2.496c-1.727 0-2.688-1.436-2.688-3.115 0-1.657.962-3.093 2.688-3.093 1.726 0 2.71 1.436 2.71 3.093 0 1.679-.984 3.115-2.71 3.115z" fill="#fff"/><path d="M49.307 15c3.496 0 5.594-2.563 5.594-5.611 0-3.027-2.098-5.59-5.594-5.59-3.475 0-5.573 2.563-5.573 5.59 0 3.048 2.098 5.61 5.573 5.61zm0-2.496c-1.727 0-2.688-1.436-2.688-3.115 0-1.657.962-3.093 2.688-3.093 1.726 0 2.71 1.436 2.71 3.093 0 1.679-.984 3.115-2.71 3.115z" fill="url(#paint3_linear_2123_6199)"/><path d="M59.736 11.31V7.534c.458-.707 1.486-1.237 2.38-1.237 1.619 0 2.69 1.26 2.69 3.115 0 1.856-1.071 3.093-2.69 3.093-.894 0-1.922-.508-2.38-1.193zm0 3.425v-1.37c.83 1.06 1.988 1.635 3.255 1.635 2.666 0 4.677-2.032 4.677-5.59 0-3.49-1.988-5.61-4.677-5.61-1.245 0-2.425.552-3.255 1.634V0h-2.775v14.735h2.775z" fill="#fff"/><path d="M59.736 11.31V7.534c.458-.707 1.486-1.237 2.38-1.237 1.619 0 2.69 1.26 2.69 3.115 0 1.856-1.071 3.093-2.69 3.093-.894 0-1.922-.508-2.38-1.193zm0 3.425v-1.37c.83 1.06 1.988 1.635 3.255 1.635 2.666 0 4.677-2.032 4.677-5.59 0-3.49-1.988-5.61-4.677-5.61-1.245 0-2.425.552-3.255 1.634V0h-2.775v14.735h2.775z" fill="url(#paint4_linear_2123_6199)"/><path d="M78.878 14.735V7.842c0-3.07-2.208-4.042-4.612-4.042-1.66 0-3.321.53-4.61 1.679l1.048 1.877c.896-.84 1.945-1.259 3.081-1.259 1.399 0 2.317.707 2.317 1.79v1.435c-.7-.839-1.945-1.303-3.343-1.303-1.683 0-3.672.95-3.672 3.446 0 2.386 1.99 3.535 3.672 3.535 1.376 0 2.622-.508 3.343-1.37v1.105h2.776zM73.873 13.1c-1.093 0-1.989-.574-1.989-1.569 0-1.038.896-1.612 1.989-1.612.896 0 1.77.31 2.23.928v1.325c-.46.619-1.334.928-2.23.928z" fill="#fff"/><path d="M78.878 14.735V7.842c0-3.07-2.208-4.042-4.612-4.042-1.66 0-3.321.53-4.61 1.679l1.048 1.877c.896-.84 1.945-1.259 3.081-1.259 1.399 0 2.317.707 2.317 1.79v1.435c-.7-.839-1.945-1.303-3.343-1.303-1.683 0-3.672.95-3.672 3.446 0 2.386 1.99 3.535 3.672 3.535 1.376 0 2.622-.508 3.343-1.37v1.105h2.776zM73.873 13.1c-1.093 0-1.989-.574-1.989-1.569 0-1.038.896-1.612 1.989-1.612.896 0 1.77.31 2.23.928v1.325c-.46.619-1.334.928-2.23.928z" fill="url(#paint5_linear_2123_6199)"/><path d="M91.529 14.735V7.202c0-2.077-1.114-3.402-3.43-3.402-1.727 0-3.016.839-3.694 1.656V4.065H81.63v10.67h2.776v-7.18c.458-.64 1.31-1.259 2.402-1.259 1.181 0 1.945.508 1.945 1.988v6.45h2.776z" fill="#fff"/><path d="M91.529 14.735V7.202c0-2.077-1.114-3.402-3.43-3.402-1.727 0-3.016.839-3.694 1.656V4.065H81.63v10.67h2.776v-7.18c.458-.64 1.31-1.259 2.402-1.259 1.181 0 1.945.508 1.945 1.988v6.45h2.776z" fill="url(#paint6_linear_2123_6199)"/><path d="M104.6 14.735l-4.306-5.832 4.174-4.838h-3.409l-3.999 4.75V0h-2.775v14.735h2.775v-2.74l1.268-1.37 2.797 4.11h3.475z" fill="#fff"/><path d="M104.6 14.735l-4.306-5.832 4.174-4.838h-3.409l-3.999 4.75V0h-2.775v14.735h2.775v-2.74l1.268-1.37 2.797 4.11h3.475z" fill="url(#paint7_linear_2123_6199)"/><defs><linearGradient id="paint0_linear_2123_6199" x1="52.6" y1="0" x2="52.6" y2="15" gradientUnits="userSpaceOnUse"><stop stop-color="#303138"/><stop offset="1" stop-color="#27282E"/></linearGradient><linearGradient id="paint1_linear_2123_6199" x1="52.6" y1="0" x2="52.6" y2="15" gradientUnits="userSpaceOnUse"><stop stop-color="#303138"/><stop offset="1" stop-color="#27282E"/></linearGradient><linearGradient id="paint2_linear_2123_6199" x1="52.6" y1="0" x2="52.6" y2="15" gradientUnits="userSpaceOnUse"><stop stop-color="#303138"/><stop offset="1" stop-color="#27282E"/></linearGradient><linearGradient id="paint3_linear_2123_6199" x1="52.6" y1="0" x2="52.6" y2="15" gradientUnits="userSpaceOnUse"><stop stop-color="#303138"/><stop offset="1" stop-color="#27282E"/></linearGradient><linearGradient id="paint4_linear_2123_6199" x1="52.6" y1="0" x2="52.6" y2="15" gradientUnits="userSpaceOnUse"><stop stop-color="#303138"/><stop offset="1" stop-color="#27282E"/></linearGradient><linearGradient id="paint5_linear_2123_6199" x1="52.6" y1="0" x2="52.6" y2="15" gradientUnits="userSpaceOnUse"><stop stop-color="#303138"/><stop offset="1" stop-color="#27282E"/></linearGradient><linearGradient id="paint6_linear_2123_6199" x1="52.6" y1="0" x2="52.6" y2="15" gradientUnits="userSpaceOnUse"><stop stop-color="#303138"/><stop offset="1" stop-color="#27282E"/></linearGradient><linearGradient id="paint7_linear_2123_6199" x1="52.6" y1="0" x2="52.6" y2="15" gradientUnits="userSpaceOnUse"><stop stop-color="#303138"/><stop offset="1" stop-color="#27282E"/></linearGradient></defs></svg>