<svg xmlns="http://www.w3.org/2000/svg" width="89" height="37" fill="none"><path fill-rule="evenodd" clip-rule="evenodd" d="M2.864 24.097c-.098.605 0 1.916.295 2.622.492 1.21 1.475 1.815 2.753 1.815 1.475 0 2.557-.504 3.245-1.008l.295 1.815c-.885.605-2.36 1.109-4.031 1.109C2.176 30.45.8 27.93.8 24.904c0-4.235 2.753-8.874 6.685-8.874 2.36 0 3.638 1.614 3.638 3.53-.196 3.63-3.736 4.638-8.259 4.537zm4.227-6.251c-1.966 0-3.441 2.218-4.03 4.437 3.244 0 5.898-.505 5.898-2.622 0-1.21-.786-1.815-1.868-1.815zm14.255 5.948c-.393 2.42-.59 4.84-.491 6.454h-1.967c0-.807.099-2.117.295-3.63h-.098c-1.377 2.823-3.048 3.933-4.72 3.933-2.162 0-3.539-1.916-3.539-4.639 0-4.84 3.146-9.882 8.456-9.882 1.18 0 2.457.202 3.244.504l-1.18 7.26zm-2.553-5.948c-3.146 0-5.702 3.73-5.8 7.563 0 1.512.49 3.025 2.064 3.025 1.77 0 3.834-2.622 4.424-6.252l.688-4.235c-.196 0-.688-.101-1.376-.101zm11.502.605c-.393-.303-1.18-.606-2.163-.606-1.278 0-2.163.908-2.163 2.118 0 1.008.59 1.613 1.671 2.32 1.377.907 2.262 2.117 2.262 3.63 0 2.924-2.065 4.537-4.72 4.537-1.278 0-2.457-.504-3.047-.907l.59-1.715c.59.404 1.671.908 2.654.908 1.377 0 2.36-1.009 2.36-2.219 0-1.109-.393-1.714-1.672-2.52-1.376-.908-2.163-2.118-2.163-3.53 0-2.42 1.869-4.336 4.425-4.336 1.081 0 2.064.303 2.556.706l-.59 1.614zm7.176 8.369c-1.278 3.025-2.556 5.445-4.227 7.26-1.377 1.613-2.852 2.218-3.54 2.42l-.491-2.017a9.297 9.297 0 002.26-1.31c.787-.707 1.672-1.816 2.36-3.228.099-.201.099-.403.099-.605l-2.458-13.008h2.163l1.18 7.462c.295 1.614.393 2.622.59 3.63h.098c.295-.907.688-1.814 1.278-3.428l3.146-7.764h2.065L37.47 26.82z" fill="#252525"/><path fill-rule="evenodd" clip-rule="evenodd" d="M37.173 33.171s5.506-9.277 6.49-13.613c.983-4.336 1.08-6.655-2.753-7.059-3.933-.403-8.357 0-8.357 0s6.194-4.033 14.354-3.73c8.259.201 12.978 3.73 12.978 3.73s-1.77.706-4.621.908c-2.851.302-3.933.907-3.736 4.235.197 3.328 1.376 5.647 1.376 5.647s-4.62-3.126-7.472 0c-2.851 3.126-3.441 4.538-5.112 6.554a23.884 23.884 0 01-3.147 3.328z" fill="#136BB5"/><path fill-rule="evenodd" clip-rule="evenodd" d="M46.61.5c1.967 0 3.54 1.613 3.54 3.63s-1.573 3.63-3.54 3.63c-1.965 0-3.538-1.613-3.538-3.63S44.742.5 46.61.5z" fill="#F8A81B"/><path fill-rule="evenodd" clip-rule="evenodd" d="M58.615 30.448c-1.278 0-2.163-.302-2.654-.605h-.099l-.983 5.95h-2.064l2.458-14.622c.294-1.714.491-3.529.688-4.94h1.868l-.393 2.621h.098c1.081-1.815 2.753-2.924 4.326-2.924 2.654 0 3.736 2.42 3.736 5.042.098 4.94-2.95 9.478-6.98 9.478zm2.557-12.503c-1.672 0-3.736 2.118-4.326 6.05l-.59 3.832c.491.504 1.376.807 2.36.807 2.654 0 4.915-3.832 4.915-7.462 0-1.513-.59-3.227-2.36-3.227zm15.239 5.849c-.393 2.42-.59 4.84-.492 6.453h-1.966c0-.806.098-2.117.295-3.63h-.098c-1.377 2.823-2.95 3.933-4.72 3.933-2.163 0-3.54-1.916-3.54-4.639 0-4.84 3.147-9.882 8.456-9.882 1.18 0 2.458.202 3.245.504l-1.18 7.26zm-2.557-5.95c-3.147 0-5.703 3.73-5.703 7.563 0 1.512.492 3.025 2.065 3.025 1.77 0 3.834-2.622 4.424-6.252l.688-4.235c-.295 0-.786-.101-1.474-.101zm10.423 8.975c-1.278 3.025-2.556 5.445-4.228 7.26-1.376 1.613-2.85 2.218-3.539 2.42l-.492-2.017a9.303 9.303 0 002.262-1.31c.786-.706 1.671-1.816 2.36-3.227.098-.202.098-.404.098-.605L78.28 16.33h2.163l1.18 7.463c.295 1.613.393 2.621.59 3.63h.098c.295-.908.688-1.816 1.278-3.429l3.048-7.764H88.8l-4.523 10.588z" fill="#252525"/></svg>