<svg xmlns="http://www.w3.org/2000/svg" width="63" height="12" fill="none"><path fill-rule="evenodd" clip-rule="evenodd" d="M18.938 11.716v-8.26C18.938 1.112 17.616 0 15.395 0c-1.846 0-3.443 1.041-4.141 2.083C10.804.78 9.682 0 7.91 0 6.064 0 4.467 1.089 3.968 1.775V.284H.8v11.432h3.168V4.024c.474-.64 1.398-1.35 2.495-1.35 1.298 0 1.797.758 1.797 1.823v7.219h3.193V4c.45-.615 1.373-1.325 2.495-1.325 1.298 0 1.797.757 1.797 1.822v7.219h3.193zm8.708.284c-3.967 0-6.363-2.746-6.363-6.012C21.284 2.746 23.68 0 27.646 0c3.992 0 6.387 2.746 6.387 5.988 0 3.266-2.395 6.012-6.387 6.012zm0-2.675c1.97 0 3.093-1.538 3.093-3.337 0-1.775-1.122-3.313-3.093-3.313-1.971 0-3.07 1.538-3.07 3.313 0 1.799 1.099 3.337 3.07 3.337zm20.034 2.391V3.645C47.68 1.42 46.408 0 43.763 0c-1.97 0-3.443.9-4.216 1.775V.284h-3.169v11.432h3.169V4.024a3.487 3.487 0 012.744-1.35c1.347 0 2.22.545 2.22 2.13v6.912h3.17zm8.733.284c-3.967 0-6.362-2.746-6.362-6.012C50.05 2.746 52.446 0 56.413 0 60.405 0 62.8 2.746 62.8 5.988 62.8 9.254 60.405 12 56.413 12zm0-2.675c1.97 0 3.093-1.538 3.093-3.337 0-1.775-1.122-3.313-3.093-3.313-1.971 0-3.07 1.538-3.07 3.313 0 1.799 1.099 3.337 3.07 3.337z" fill="#000"/></svg>