<svg xmlns="http://www.w3.org/2000/svg" width="98" height="92" fill="none"><path d="M30.944 64.748l-2.777 10.08c-.234.89-1.045 4.588-1.317 7.294h-.242c-.272-2.938-1.012-6.109-1.323-7.5l-2.218-9.873h-7.066l-2.218 9.873c-.31 1.391-1.05 4.562-1.323 7.5h-.241c-.273-2.706-1.083-6.403-1.317-7.293L8.125 64.748H0l7.277 22.96c.895 2.823 2.374 4.29 4.903 4.29 2.49 0 4.086-1.546 4.71-4.29l1.089-4.677c.467-1.971 1.128-4.832 1.44-6.996h.233c.311 2.164.973 5.025 1.44 6.996l1.089 4.677c.66 2.745 2.218 4.29 4.709 4.29 2.529 0 4.008-1.469 4.903-4.29l7.277-22.96h-8.126zm22.018-.58c-8.25 0-14.594 6.07-14.594 13.916 0 7.847 6.343 13.915 14.594 13.915 8.25 0 14.594-6.07 14.594-13.915 0-7.847-6.344-13.916-14.594-13.916zm0 21.067c-4.047 0-7.2-3.131-7.2-7.151s3.153-7.152 7.2-7.152c4.047 0 7.2 3.132 7.2 7.152s-3.153 7.15-7.2 7.15zm44.791-9.161H82.07v5.49h8.598c-.421 2.017-2.964 3.981-6.458 3.981-4.84 0-7.433-3.247-7.433-7.46 0-4.059 3.114-7.19 7.316-7.19 2.918 0 5.136 1.47 6.343 3.71l6.732-2.743c-2.374-4.638-6.77-7.693-13.075-7.693-8.173 0-14.594 6.03-14.594 13.916S75.647 92 84.093 92c9.263 0 15.217-7.228 13.66-15.926z" fill="#009345"/><path d="M72.582 0c-4.897 0-8.866 3.943-8.866 8.806a8.72 8.72 0 00.918 3.904l7.948 16 7.948-16a8.718 8.718 0 00.918-3.904c0-4.863-3.97-8.806-8.866-8.806z" fill="#8BC53F"/><path d="M44.244 38.371l-7.22 14.524-19.977-40.182c-2.168-4.363-.365-9.645 4.026-11.8 4.392-2.154 9.71-.363 11.879 3.999l11.291 22.715a12.058 12.058 0 01.001 10.744zm23.784 0l-7.22 14.524-19.975-40.182c-2.169-4.363-.366-9.645 4.025-11.8 4.393-2.154 9.71-.363 11.88 3.999l11.29 22.715a12.061 12.061 0 010 10.744z" fill="#009345"/></svg>