<svg xmlns="http://www.w3.org/2000/svg" width="159" height="40" fill="none"><path d="M6.98 3.868c0 1.962-1.545 3.52-3.49 3.52C1.545 7.388 0 5.83 0 3.868 0 1.905 1.545.347 3.49.347c1.888-.058 3.49 1.558 3.49 3.52z" fill="#8BC53F"/><path d="M28.207 16.565v9.697c0 1.616.229 2.886.686 3.81-.743.634-1.544.923-2.517.923-.915 0-1.602-.23-1.945-.693-.344-.461-.515-1.154-.515-2.078V17.661c0-1.443-.172-2.482-.572-3.059-.344-.635-1.03-.923-1.946-.923-.915 0-1.83.23-2.803.692-.973.462-1.774 1.097-2.518 1.905v14.43c-.457.116-1.144.174-2.117.174-.457 0-.858 0-1.201-.058a4.98 4.98 0 01-.973-.116v-20.49l.23-.231h1.601c1.488 0 2.289.865 2.346 2.597 2.002-1.847 4.177-2.77 6.58-2.77 1.83 0 3.204.634 4.12 1.847 1.086 1.154 1.544 2.828 1.544 4.906zM5.55 12.524c-.057-1.731-.858-2.597-2.346-2.597H1.602l-.229.23V30.65c.286.057.572.115.973.115.343 0 .744.058 1.201.058.916 0 1.66-.058 2.117-.173V16.22c-.114-.924-.114-2.829-.114-3.695zm29.866 18.183V13.218l-3.548.058c-.057-.231-.114-.462-.114-.75-.057-.29-.057-.578-.057-.809 0-.635.057-1.154.171-1.616l3.319.058c-.172-1.674-.229-2.944-.229-3.694 0-.924.172-1.79.458-2.598.286-.808.687-1.5 1.259-2.078.572-.577 1.201-1.039 2.002-1.327C39.421.115 40.337 0 41.252 0c1.945 0 3.719.346 5.378.981 0 1.27-.343 2.194-.973 2.886-.629-.173-1.258-.346-1.773-.461a7.888 7.888 0 00-1.545-.174c-1.145 0-2.003.289-2.518.924-.514.635-.743 1.558-.743 2.828 0 .462 0 .981.057 1.501.057.52.114 1.097.229 1.732l5.836-.058c.057.23.114.52.114.75.057.289.057.577.057.866 0 .289 0 .577-.057.808 0 .289-.057.52-.114.75l-5.55-.057v17.49a5.06 5.06 0 01-.973.115c-.343 0-.744.058-1.087.058-.4 0-.744 0-1.087-.058-.515-.116-.801-.174-1.087-.174zM55.384 12.87c-2.975 0-4.463 2.54-4.463 7.562s1.488 7.561 4.463 7.561c3.032 0 4.52-2.54 4.52-7.561 0-5.08-1.545-7.561-4.52-7.561zm5.95 16.047c-1.487 1.5-3.49 2.309-6.007 2.309-1.43 0-2.69-.231-3.776-.75-1.088-.52-2.003-1.27-2.804-2.194a10.564 10.564 0 01-1.717-3.405c-.4-1.328-.572-2.771-.572-4.445 0-1.616.172-3.06.572-4.387.401-1.327.973-2.482 1.717-3.405.744-.982 1.66-1.674 2.803-2.194 1.088-.52 2.346-.75 3.777-.75 1.43 0 2.689.23 3.776.75 1.087.52 2.002 1.27 2.803 2.194a10.56 10.56 0 011.717 3.405c.4 1.328.572 2.828.572 4.387.057 3.694-.915 6.522-2.86 8.485z" fill="#4B4D4D"/><path d="M77.697 13.218c-1.773 0-3.318.923-4.52 2.713v10.216c.687.462 1.43.866 2.06 1.097a4.898 4.898 0 001.945.404c1.316 0 2.346-.635 3.09-1.905.801-1.27 1.201-3.117 1.201-5.483 0-2.425-.343-4.214-1.087-5.369-.686-1.096-1.602-1.673-2.689-1.673zm.172 17.835c-1.545 0-3.09-.461-4.692-1.385v7.62c0 .98-.171 1.673-.515 2.077-.343.404-.915.635-1.773.635h-1.66l-.228-.23V10.215l.228-.23h1.317c1.372 0 2.23.692 2.517 2.135 1.602-1.674 3.49-2.482 5.721-2.482 1.087 0 2.117.23 2.976.75a7.144 7.144 0 012.231 2.136c.572.923 1.03 2.078 1.373 3.405.343 1.328.458 2.829.458 4.503s-.229 3.174-.63 4.502c-.4 1.328-.972 2.482-1.716 3.348-.744.923-1.602 1.616-2.517 2.078a7.113 7.113 0 01-3.09.692zm12.816-6.811v-9.697c0-1.674-.228-2.886-.686-3.752.686-.634 1.602-.923 2.689-.923 1.487 0 2.289.924 2.289 2.713v10.563c0 1.443.171 2.482.514 3.059.344.635.973.924 1.889.924.915 0 1.83-.231 2.746-.693a9.775 9.775 0 002.517-1.847V10.1a14.22 14.22 0 012.117-.173c.63 0 1.373.057 2.175.173v14.72c0 1.962.4 3.232 1.144 3.925-.286.98-.858 1.731-1.602 2.193-1.717-.288-2.861-1.327-3.49-3.001-2.174 2.078-4.463 3.059-6.866 3.059-1.831 0-3.147-.635-4.062-1.847-.916-1.212-1.374-2.886-1.374-4.907zm28.437 3.176h1.545c.229.692.401 1.327.401 1.847s-.058.981-.115 1.27a22.496 22.496 0 01-3.49.288c-2.746 0-4.062-1.443-4.062-4.271V.346l.286-.23h1.602c.858 0 1.43.23 1.773.634.344.405.515 1.155.515 2.078V25.57c-.057 1.27.515 1.848 1.545 1.848zm4.463 1.731c0-.462.172-.982.458-1.617.286-.577.572-1.039.972-1.385 2.174 1.212 3.948 1.847 5.321 1.847 1.373 0 2.46-.23 3.09-.693.686-.461 1.03-1.096 1.03-1.847 0-1.212-.859-2.135-2.575-2.828l-2.289-.866c-3.49-1.327-5.206-3.29-5.206-5.945 0-1.905.687-3.405 2.06-4.502s3.146-1.674 5.321-1.674c2.231 0 4.462.52 6.637 1.5 0 .578-.115 1.155-.344 1.732-.229.635-.515 1.097-.915 1.443-1.945-.923-3.776-1.385-5.493-1.385-.915 0-1.602.23-2.174.693-.515.461-.801.98-.801 1.674 0 .692.172 1.154.572 1.558.401.346 1.03.75 1.946 1.097l2.46.98c3.49 1.386 5.263 3.464 5.263 6.235 0 1.905-.743 3.405-2.174 4.56-1.43 1.097-3.433 1.674-5.95 1.674-2.517-.173-4.92-.866-7.209-2.251zm27.176-16.392c-2.632 0-4.005 1.962-4.234 5.887h8.354v-.52c0-1.558-.344-2.885-1.03-3.867-.63-.981-1.66-1.5-3.09-1.5zm7.953 9.004h-12.13c.058 1.905.515 3.405 1.202 4.387.744 1.039 1.945 1.558 3.719 1.558.801 0 1.716-.115 2.632-.346.972-.23 1.945-.635 2.975-1.212.687.635 1.144 1.558 1.373 2.77-2.174 1.559-4.806 2.31-7.781 2.31-1.545 0-2.861-.29-3.948-.809a7.304 7.304 0 01-2.632-2.309c-.686-.98-1.144-2.135-1.487-3.463a20.495 20.495 0 01-.458-4.33c0-1.5.172-2.943.572-4.27.4-1.328.915-2.425 1.659-3.406.687-.923 1.602-1.674 2.689-2.251 1.03-.52 2.232-.808 3.548-.808 1.316 0 2.517.23 3.547.693 1.03.461 1.888 1.038 2.632 1.847.744.808 1.259 1.731 1.602 2.828.343 1.097.572 2.309.572 3.579 0 .577 0 1.096-.057 1.616s-.115 1.097-.229 1.616z" fill="#2978A1"/><path d="M39.593 30.419c-.058.115-.115.173-.172.288.057 0 .114 0 .172-.057v-.231z" fill="#4B4D4D"/></svg>