<svg xmlns="http://www.w3.org/2000/svg" width="202" height="52" fill="none"><path d="M201.904 37.739c-.288.388-.481.873-.769 1.261-.961.873-2.692.776-3.172-.873-.963.388-2.02.97-3.078 1.261-2.596.582-4.998-.097-7.018-2.037-1.731-1.65-2.596-3.88-2.596-6.306.096-3.978 2.885-7.47 6.634-8.053 2.115-.387 4.134.098 5.865 1.553.288-.776.673-1.456 1.538-1.553 1.154-.193 2.115.389 2.596 1.553 0 .097.096.097.096.29-.096 4.172-.096 8.635-.096 12.904zm-12.691-6.5c0 2.62 1.923 4.656 4.518 4.753 2.501 0 4.423-2.037 4.423-4.56 0-2.813-1.922-4.753-4.423-4.753-2.595 0-4.518 1.94-4.518 4.56zm-53.841 8.343v5.142c0 .873-.481 1.455-1.154 1.843-.674.388-1.346.291-1.922-.194-.481-.388-.77-.873-.77-1.552v-5.142c-4.903-.776-7.98-3.298-8.076-8.634 0-2.135.769-3.978 2.404-5.627 1.538-1.552 3.461-2.231 5.672-2.425v-5.724c0-.873.577-1.844 1.346-2.038.962-.29 1.923.098 2.403 1.068.097.29.193.582.193.873 0 1.649.096 3.395 0 5.044 0 .486.193.68.673.776 2.692.389 4.807 1.65 6.249 3.881 2.115 3.396 1.538 8.537-2.403 10.963-1.154.776-2.5 1.261-3.846 1.455-.48.194-.577.194-.769.291zm0-3.687c2.884-.388 4.615-2.91 4.038-5.53-.385-1.94-2.307-3.589-4.038-3.589v9.12zm-4.038-9.119c-2.019.097-3.942 1.94-4.134 3.88-.097 2.814 1.538 4.852 4.134 5.143v-9.023zm38.458-2.426c1.058-.387 2.115-.97 3.173-1.26 3.941-.874 7.692 1.26 8.941 5.141 1.154 3.493.48 6.694-2.115 9.217-2.596 2.522-6.923 2.813-9.615.485-.096-.097-.096-.097-.289-.097v6.694c0 1.164-.864 2.134-2.018 2.134s-2.115-.873-2.115-2.134V24.933c0-.873.864-2.037 1.827-2.134 1.154 0 1.922.582 2.211 1.552zm8.748 6.986c.097-2.134-1.538-4.657-4.518-4.657-2.788 0-4.519 2.135-4.519 4.85.096 2.426 2.019 4.366 4.519 4.366 2.884 0 4.615-2.522 4.518-4.56zm-27.977 1.455c.096 1.067.769 1.65 1.538 2.328 1.538 1.262 4.326.97 5.577.291.48-.388 1.057-.485 1.634-.485.768.097 1.154.389 1.538 1.068.288.582.193 1.164-.193 1.843-.672.873-1.634 1.164-2.692 1.552-2.692.582-5.384.68-7.787-.873-2.692-1.65-4.231-5.045-3.654-8.246.577-3.59 2.788-6.015 6.25-6.888 4.519-1.165 8.46 1.552 9.614 5.724.097.485.193.873.193 1.455 0 1.455-.866 2.425-2.308 2.425h-8.846c-.384-.194-.577-.194-.864-.194zm0-3.007h7.979c-.096-1.65-2.115-3.202-4.037-3.202-1.827 0-3.846 1.65-3.942 3.202z" fill="#5D3D3A"/><path d="M55.572 32.791c.096 1.067.769 1.65 1.538 2.328 1.538 1.262 4.327.97 5.577.291.48-.388 1.057-.485 1.634-.485.77.097 1.154.389 1.538 1.068.289.582.193 1.164-.192 1.843-.673.873-1.635 1.164-2.692 1.552-2.692.582-5.384.68-7.788-.873-2.692-1.65-4.23-5.045-3.653-8.246.577-3.59 2.788-6.015 6.25-6.888 4.518-1.165 8.46 1.552 9.613 5.724.097.485.193.873.193 1.455 0 1.455-.865 2.425-2.308 2.425h-8.845c-.48-.194-.673-.194-.865-.194zm0-3.007h7.98c-.096-1.65-2.115-3.202-4.038-3.202s-3.942 1.65-3.942 3.202zm32.016 1.455c-.096-4.366 3.365-8.343 8.364-8.343 4.711 0 8.461 3.59 8.461 8.343a8.326 8.326 0 01-8.364 8.343c-5 0-8.557-3.977-8.461-8.343zm3.846 0c0 2.62 2.019 4.656 4.518 4.753 2.5 0 4.519-2.134 4.519-4.656s-2.019-4.56-4.519-4.56c-2.5-.097-4.518 1.94-4.518 4.463zM79.32 30.85c1.73 1.747 3.557 3.493 5.191 5.142.385.389.673.874.77 1.553.096.776-.289 1.552-1.058 1.94-.77.388-1.73.097-2.308-.388-1.923-1.94-3.846-3.978-5.865-5.918-.192-.194-.48-.29-.865-.485v4.851a2.115 2.115 0 01-1.923 2.134c-1.153.097-2.115-.873-2.115-2.037v-12.71c0-1.066.962-1.94 2.115-1.94 1.058 0 1.923.874 1.923 2.038v3.88c.48.098.865.098 1.25-.388 1.058-1.26 2.115-2.522 3.269-3.686.577-.582 1.25-1.164 2.115-1.65.77-.484 1.923-.29 2.404.389.769.873.673 2.037-.385 2.813-1.73 1.164-3.076 2.91-4.519 4.463z" fill="#A1CD4F"/><path d="M107.201 31.239c-.096-3.978 2.981-7.567 6.923-8.15 1.73-.29 3.557-.096 5.192.486.769.388 1.538.776 1.538 1.746.096.776-.192 1.358-.769 1.843-.769.485-1.539.388-2.212 0-1.826-.776-3.461-.776-5.095.485-1.346 1.067-2.019 3.202-1.635 4.754.481 1.843 2.019 3.105 3.75 3.396 1.154.096 2.115-.097 3.076-.582.962-.486 2.02-.389 2.693.485.576.873.48 1.843-.481 2.619-.385.291-.769.485-1.154.776-1.25.485-2.692.485-3.942.485-1.634-.097-3.173-.582-4.423-1.552-2.018-1.552-3.557-3.88-3.461-6.791z" fill="#5D3D3A"/><path d="M20.575 10.478c-5.673 0-10.287 4.656-10.287 10.38 0 5.724 4.614 10.38 10.287 10.38 5.672 0 10.288 4.657 10.288 10.381S26.247 52 20.575 52C31.92 52 41.15 42.687 41.15 31.239c.096-11.448-9.134-20.761-20.575-20.761z" fill="#CDDD71"/><path d="M20.575 31.239c-5.673 0-10.287-4.657-10.287-10.38 0-5.725 4.614-10.381 10.287-10.381C9.23 10.478 0 19.79 0 31.238 0 42.688 9.23 52 20.575 52c5.672 0 10.288-4.657 10.288-10.38 0-5.724-4.52-10.381-10.288-10.381z" fill="#9ECA50"/><path d="M19.902 6.597l-.577-1.164c-.577.097-1.058.388-1.538.679.384.291.673.582 1.057.873.77.873 1.25 2.134 1.346 3.396h.481c-.096-1.262-.288-2.62-.77-3.784zm.673 37.06a2.028 2.028 0 002.019-2.038 2.028 2.028 0 00-2.02-2.037 2.028 2.028 0 00-2.018 2.037c0 1.126.904 2.038 2.019 2.038z" fill="#543739"/><path d="M30.959 0C25.285 0 20.67 4.657 20.67 10.38c5.674.099 10.29-4.56 10.29-10.38z" fill="#A0CC4F"/></svg>