<svg xmlns="http://www.w3.org/2000/svg" width="58" height="58" fill="none"><path d="M29.026 55.242c14.479 0 26.216-11.738 26.216-26.216 0-14.48-11.737-26.217-26.216-26.217C14.547 2.81 2.81 14.547 2.81 29.025c0 14.48 11.737 26.217 26.216 26.217z" fill="#1E1E1E"/><path d="M29 .5C13.26.5.5 13.26.5 29S13.26 57.5 29 57.5 57.5 44.74 57.5 29 44.74.5 29 .5zm0 53.862C14.988 54.362 3.638 43.012 3.638 29 3.638 14.988 14.988 3.638 29 3.638c14.012 0 25.362 11.35 25.362 25.362 0 14.002-11.35 25.362-25.362 25.362z" fill="#FFD948"/><path d="M38.912 22.57l-6.355 9.424h6.355V22.57zm2.413-3.813v13.237h2.79v2.393h-2.79v4.946h-2.413v-4.946h-8.977v-2.582l9.057-13.048h2.333zM27.264 36.929v2.404H13.808v-.07c.13-2.254.715-3.903 1.828-5.263.913-1.122 2.015-1.966 4.29-3.386-.01 0 .804-.507 1.032-.656 1.222-.784 2.006-1.39 2.622-2.105.774-.904 1.182-1.887 1.182-3.039 0-2.244-1.59-3.793-3.883-3.793-2.662 0-4.032 2.026-4.111 5.075v.059h-2.394v-.06l-.03-.556c0-4.071 2.652-6.782 6.644-6.782 3.903 0 6.445 2.363 6.445 6.008 0 1.857-.666 3.366-1.947 4.707-.963 1.003-1.956 1.688-4.2 3.048l-.09.06c-.109.06-.595.348-.724.427-1.073.645-1.718 1.092-2.294 1.639-.705.675-1.172 1.41-1.39 2.283h10.476z" fill="#fff"/><path fill-rule="evenodd" clip-rule="evenodd" d="M.5 29C.5 13.26 13.26.5 29 .5S57.5 13.26 57.5 29v.034h-3.138V29c0-14.012-11.35-25.362-25.362-25.362C14.988 3.638 3.638 14.988 3.638 29v.034H.5V29z" fill="#156DD1"/></svg>