<svg width="314" height="160" fill="none" xmlns="http://www.w3.org/2000/svg"><path d="M299.783 130.576v26.745h-13.912v-26.745h-62.117v-6.578L292.449 2.676h7.334v114.636h13.264v13.264h-13.264zm-13.912-89.832l-42.597 76.568h42.597V40.744z" fill="url(#paint0_radial_182_19189)"/><path d="M198.519 136.292c2.013-4.601 3.02-9.526 3.02-14.774v-37.36c-3.078 9.195-7.444 18.154-13.912 25.546v11.814c0 3.451-.647 6.686-1.941 9.706a26.574 26.574 0 01-5.284 7.872c-2.229 2.229-4.853 3.991-7.873 5.285-2.947 1.294-6.147 1.941-9.598 1.941h-5.284c-3.451 0-6.686-.647-9.706-1.941a26.57 26.57 0 01-7.872-5.285 26.555 26.555 0 01-5.284-7.872c-1.295-3.02-1.942-6.255-1.942-9.706v-11.587c-6.004-7.38-10.557-16.436-13.911-25.333v36.92c0 5.248.97 10.173 2.911 14.774 2.014 4.602 4.746 8.628 8.196 12.079 3.451 3.451 7.478 6.183 12.079 8.196 4.673 1.941 9.634 2.912 14.882 2.912h6.578c5.249 0 10.173-.971 14.775-2.912 4.601-2.013 8.627-4.745 12.078-8.196 3.451-3.451 6.147-7.477 8.088-12.079z" fill="url(#paint1_radial_182_19189)"/><path d="M118.932 44.255a76.943 76.943 0 0113.912-5.898c.015-3.404.662-6.562 1.941-9.475 1.294-3.02 3.055-5.644 5.284-7.873a26.576 26.576 0 017.872-5.284c3.02-1.294 6.255-1.94 9.706-1.94h5.284c3.451 0 6.651.646 9.598 1.94 3.02 1.294 5.644 3.056 7.873 5.284 2.228 2.23 3.99 4.853 5.284 7.873 1.294 2.948 1.941 6.147 1.941 9.598v.203c5.599 1.723 10.333 3.776 13.912 5.61V38.48c0-5.248-1.007-10.173-3.02-14.774-1.941-4.602-4.637-8.628-8.088-12.079-3.451-3.45-7.477-6.147-12.078-8.088-4.602-2.013-9.526-3.02-14.775-3.02H157c-5.248 0-10.209 1.007-14.882 3.02-4.601 1.941-8.628 4.637-12.079 8.088-3.45 3.451-6.182 7.477-8.196 12.079-1.941 4.6-2.911 9.526-2.911 14.774v5.775z" fill="url(#paint2_radial_182_19189)"/><path d="M76.981 130.576v26.745H63.07v-26.745H.953v-6.578L69.648 2.676h7.333v114.636h13.265v13.264H76.98zM63.07 40.744l-42.598 76.568H63.07V40.744z" fill="url(#paint3_radial_182_19189)"/><path fill-rule="evenodd" clip-rule="evenodd" d="M167.659 46.806c-.235-2.264-1.583-7.506-1.348-5.48.234 4.11-1.348 7.297-3.809 10.692-2.022 2.502-4.249 5.45-6.27 9.323-1.348 2.74-3.575 6.374-2.901 7.506.674 1.132-2.022-2.74-2.901-4.557-1.347-2.95-1.582-4.796-1.787-7.983-.439-3.872 1.348-12.301.235-9.56-.674 1.578-7.618 11.169-8.732 19.598-.673 3.872-.908 6.374 0 10.246.909 5.004 2.022 6.612 5.157 11.854.674.924-.674-7.059-.674-9.352-.439-3.187 2.022 5.927 3.809 9.352 1.113 2.294 1.787 3.634 3.37 5.69 2.226 2.948 7.178 8.19 6.709 7.297-1.582-3.426-1.348-4.558-1.787-6.374-.674-3.634-.674-6.613 0-10.693.439-3.425 2.227-7.298 2.021-8.43.235-2.501.674 3.426 1.114 5.481 1.348 6.82 4.717 15.488 4.483 17.067-.235.447 3.369-3.425 4.922-5.927 2.901-4.32 4.043-13.195 4.248-12.748 1.788 3.425 1.114 9.56.909 10.246-.235.685 2.695-2.74 3.809-5.004 3.369-6.136 2.461-11.17 1.113-18.229-.908-4.11-2.022-5.48-2.901-10.246-.439-2.74 2.256-11.17.674-7.297-1.113 2.055-5.391 5.927-7.178 9.8-1.114 2.501-3.37 6.135-3.575 6.611-.234.924-.908-2.74-.908-4.557 0-2.502 1.787-9.352 2.022-9.799.234-.923.439-2.949.234-4.557l-.058.03z" fill="#EC641C"/><path fill-rule="evenodd" clip-rule="evenodd" d="M161.154 31.764c-.439 2.264-.908 3.426-1.582 5.69-1.553 4.11-4.717 5.688-6.036 10.245-.439 1.37-.674 2.264-.674 4.11-.439 2.74.909 6.613.674 7.298-.234 1.37 1.582-2.949 2.696-4.557 1.348-2.264 2.461-3.187 3.809-5.45 1.582-2.741 2.461-4.558 2.9-7.745.674-2.74.674-4.319.235-7.297-.235-2.502-1.348-7.506-1.348-6.374 0 1.608-.44 2.502-.674 4.11v-.03z" fill="#EC641C"/><path d="M170.383 37.84l2.168 6.553s15.939 2.383 23.792 7.715c0 0-.616 5.897-2.022 10.395l-5.567-2.175-3.076 7.923 6.035 2.413s-2.783 8.31-6.446 14.624l8.263 8.519c12.452-25.139 12.423-43.725 12.423-43.725s-13.331-11.318-35.57-12.242zm-10.694 70.74h-.205c-6.065 0-12.862-6.165-17.316-11.974l-8.497 9.115c6.065 7.535 16.379 16.799 26.223 16.799h.205c9.728 0 19.426-9.353 25.461-16.799l-7.998-9.174c-4.864 5.808-11.779 12.063-17.844 12.063l-.029-.03zm-31.497-37.887l6.036-2.412-3.077-7.923-5.566 2.174c-1.407-4.497-2.022-10.395-2.022-10.395 7.852-5.331 23.791-7.714 23.791-7.714l2.168-6.553c-22.238.864-35.569 12.212-35.569 12.212s0 18.586 12.423 43.725l8.262-8.519c-3.662-6.314-6.446-14.624-6.446-14.624v.03z" fill="#232856"/><defs><radialGradient id="paint0_radial_182_19189" cx="0" cy="0" r="1" gradientUnits="userSpaceOnUse" gradientTransform="matrix(6.5 106.49983 -462.78586 28.2452 295 2.52)"><stop stop-color="#FFC657"/><stop offset=".476" stop-color="#FF6200"/><stop offset="1" stop-color="#232856"/></radialGradient><radialGradient id="paint1_radial_182_19189" cx="0" cy="0" r="1" gradientUnits="userSpaceOnUse" gradientTransform="matrix(0 121 -305.551 0 160 .52)"><stop offset=".01" stop-color="#FFC14A"/><stop offset=".304" stop-color="#FF6200"/><stop offset=".555" stop-color="#232856"/></radialGradient><radialGradient id="paint2_radial_182_19189" cx="0" cy="0" r="1" gradientUnits="userSpaceOnUse" gradientTransform="matrix(0 121 -305.551 0 160 .52)"><stop offset=".01" stop-color="#FFC14A"/><stop offset=".304" stop-color="#FF6200"/><stop offset=".555" stop-color="#232856"/></radialGradient><radialGradient id="paint3_radial_182_19189" cx="0" cy="0" r="1" gradientUnits="userSpaceOnUse" gradientTransform="rotate(102.504 35.739 30.753) scale(127.013 317.116)"><stop stop-color="#FFC657"/><stop offset=".324" stop-color="#FF6200"/><stop offset="1" stop-color="#232856"/></radialGradient></defs></svg>