<svg xmlns="http://www.w3.org/2000/svg" width="86" height="107" fill="none"><path d="M0 10C0 4.477 4.477 0 10 0h54l19.071 19.071A10 10 0 0186 26.142V97c0 5.523-4.477 10-10 10H10c-5.523 0-10-4.477-10-10V10z" fill="#E2F6FF"/><path d="M0 10C0 4.477 4.477 0 10 0h54l22 22v10H0V10z" fill="#7CB2C9"/><path d="M17.834 16.906h4.258V23h2.832V8.781h-2.832v5.762h-4.258V8.781h-2.861V23h2.861v-6.094zM32.629 23V11.154h3.535V8.781H26.32v2.373h3.467V23h2.842zM41.35 8.781l2.9 9.727 2.89-9.727h3.526V23h-2.754v-4.844l.185-4.944L45.316 23h-2.14l-2.753-9.03.166 4.186V23h-2.764V8.781h3.526zm19.54 11.856V23H53V8.781h2.861v11.856h5.03zM9.67 20.53c-.287.286-.43.644-.43 1.073 0 .43.143.788.43 1.075.286.286.674.43 1.162.43.488 0 .876-.144 1.162-.43.287-.287.43-.645.43-1.075 0-.43-.143-.787-.43-1.074-.286-.293-.674-.44-1.162-.44-.488 0-.876.147-1.162.44z" fill="#fff"/><path d="M65 1l21 21v1H75c-5.523 0-10-4.477-10-10V1z" fill="#5E99B2"/><path d="M64 0l22 22H74c-5.523 0-10-4.477-10-10V0z" fill="#B7E5F8"/><path d="M13.91 75.681c-1.234-.422-2.036-.917-2.902-1.79C9.696 72.565 9 70.843 9 68.92c0-1.39.268-2.474.94-3.778.448-.868 1.019-1.497 4.45-4.931 4.208-4.206 4.697-4.585 6.676-5.172 1.017-.3 3.057-.3 4.069.003 1.666.499 3.207 1.608 3.51 2.527.624 1.884-1.624 3.342-3.126 2.033-.82-.714-1.356-.916-2.417-.914-1.639.002-1.916.2-5.914 4.187-2.706 2.697-3.619 3.696-3.917 4.289-1.204 2.39.303 4.982 2.886 4.964 1.383-.01 2.065-.432 4.404-2.71l1.978-1.933.71.326c.917.423 2.498.65 3.383.485l.675-.126-3.226 3.184c-3.465 3.42-4.187 3.95-6.038 4.431-1.227.322-3.024.275-4.132-.103v-.002zm11.156-9.51c-2.045-.2-4.3-1.512-4.705-2.739-.453-1.37.76-2.786 2.157-2.525.248.047.786.336 1.195.643 1.248.938 2.459 1.064 3.897.407.954-.434 7.577-7.032 8.085-8.049.719-1.442.622-2.805-.273-3.85-.73-.855-1.466-1.192-2.57-1.185-1.382.01-2.065.43-4.404 2.71l-1.98 1.932-.707-.326c-.918-.422-2.498-.65-3.38-.485l-.674.127 3.224-3.186c2.713-2.683 3.378-3.267 4.217-3.7C30.453 45.27 31.53 45 32.937 45c3.212 0 5.93 2.056 6.847 5.18.284.966.289 2.792.009 3.86-.118.452-.444 1.272-.726 1.818-.448.867-1.02 1.5-4.45 4.93-4.063 4.062-4.51 4.422-6.278 5.053-.802.287-2.228.43-3.272.329h-.001z" fill="#7CB2C9"/><path d="M72.01 95.965l.004.004.004.005a.466.466 0 00.012.012l.016.015.017.015a.55.55 0 00.016.015l.017.014.017.014.018.013.017.013a.334.334 0 00.019.012c.006.004.011.008.018.011l.02.012.017.01.02.01c.006.003.011.007.017.009l.022.01.016.007.024.01.015.006a.308.308 0 00.025.008l.015.005a.519.519 0 00.026.008l.014.004.027.006.013.003.029.005.012.002.03.004.011.001c.01.002.021.002.032.003h.01a.71.71 0 00.04.002l.041-.001a.06.06 0 00.009-.001l.033-.003.011-.001.03-.004.012-.002a3.898 3.898 0 00.041-.008l.027-.006.015-.004.025-.007.015-.005.024-.009a.66.66 0 00.016-.006l.023-.01c.006-.001.011-.004.017-.006l.022-.01a.336.336 0 00.017-.009l.02-.01c.006-.004.011-.008.017-.01l.02-.012.017-.011.019-.013.017-.012.017-.013.018-.014.017-.014.016-.014.017-.016a.272.272 0 00.015-.015l.013-.012.004-.005.004-.004 4.025-4.275a.927.927 0 00-.009-1.268.829.829 0 00-1.21.009l-2.559 2.717v-8.252c0-.496-.383-.897-.856-.897s-.856.401-.856.897v8.251l-2.559-2.718a.829.829 0 00-1.21-.008.927.927 0 00-.009 1.268l4.025 4.275h-.001z" fill="#2395FF"/><path d="M79.382 95.275c-.472 0-.856.402-.856.897 0 1.122-.87 2.034-1.94 2.034h-7.932c-1.07 0-1.942-.912-1.942-2.034 0-.495-.383-.897-.856-.897s-.856.402-.856.897c0 2.111 1.64 3.828 3.654 3.828h7.93c2.015 0 3.654-1.717 3.654-3.828 0-.495-.383-.897-.856-.897z" fill="#2395FF"/></svg>