<svg xmlns="http://www.w3.org/2000/svg" width="86" height="107" fill="none"><path d="M0 10C0 4.477 4.477 0 10 0h54l19.071 19.071A10 10 0 0186 26.142V97c0 5.523-4.477 10-10 10H10c-5.523 0-10-4.477-10-10V10z" fill="#FFEFE5"/><path d="M0 10C0 4.477 4.477 0 10 0h54l22 22v10H0V10z" fill="#FF6200"/><path fill-rule="evenodd" clip-rule="evenodd" d="M19.816 17.99h-1.992V23h-2.851V8.781h4.843c.957 0 1.781.202 2.471.606.69.403 1.218.96 1.582 1.67.371.703.557 1.51.557 2.421 0 .912-.186 1.706-.557 2.383a3.86 3.86 0 01-1.592 1.573c-.683.37-1.504.556-2.46.556zm-1.992-6.836v4.463h1.983c.416 0 .752-.091 1.006-.273a1.56 1.56 0 00.556-.752c.117-.326.176-.69.176-1.094 0-.41-.059-.794-.176-1.152a1.848 1.848 0 00-.556-.86c-.254-.221-.586-.332-.997-.332h-1.992zM30.05 23c.84 0 1.6-.134 2.276-.4a4.685 4.685 0 001.729-1.163c.481-.514.853-1.142 1.113-1.884s.39-1.595.39-2.559v-2.197c0-.957-.13-1.81-.39-2.559-.26-.748-.632-1.377-1.113-1.884a4.737 4.737 0 00-1.729-1.172c-.67-.267-1.416-.4-2.236-.4h-3.75V23h3.71zm-.849-2.363h.85c.69 0 1.227-.124 1.611-.371.384-.248.654-.638.81-1.172.163-.534.245-1.234.245-2.1v-2.217c0-.657-.042-1.214-.127-1.67-.085-.462-.228-.833-.43-1.113a1.785 1.785 0 00-.81-.635c-.339-.136-.759-.205-1.26-.205h-.89v9.483z" fill="#fff"/><path d="M40.51 14.826v-3.672h5V8.781h-7.862V23h2.862v-5.81h4.453v-2.364H40.51zM9.67 20.53c-.287.286-.43.644-.43 1.073 0 .43.143.788.43 1.075.286.286.674.43 1.162.43.488 0 .876-.144 1.162-.43.287-.287.43-.645.43-1.075 0-.43-.143-.787-.43-1.074-.286-.293-.674-.44-1.162-.44-.488 0-.876.147-1.162.44z" fill="#fff"/><path d="M65 1l21 21v1H75c-5.523 0-10-4.477-10-10V1z" fill="#C65107"/><path d="M64 0l22 22H74c-5.523 0-10-4.477-10-10V0z" fill="#FDB588"/><path d="M12.5 42a3.5 3.5 0 100 7h49a3.5 3.5 0 100-7h-49zm.5 11a4 4 0 00-4 4v10a4 4 0 004 4h10a4 4 0 004-4V57a4 4 0 00-4-4H13zm18 3.5a3.5 3.5 0 013.5-3.5h20a3.5 3.5 0 110 7h-20a3.5 3.5 0 01-3.5-3.5zm3.5 7.5a3.5 3.5 0 100 7h14a3.5 3.5 0 100-7h-14z" fill="#FFB07F"/><path d="M72.01 95.965l.004.004.004.005a.466.466 0 00.012.012l.016.015.017.015a.55.55 0 00.016.015l.017.014.017.014.018.013.017.013a.334.334 0 00.019.012c.006.004.011.008.018.011l.02.012.017.01.02.01c.006.003.011.007.017.009l.022.01.016.007.024.01.015.006a.308.308 0 00.025.008l.015.005a.519.519 0 00.026.008l.014.004.027.006.013.003.029.005.012.002.03.004.011.001c.01.002.021.002.032.003h.01a.71.71 0 00.04.002l.041-.001a.06.06 0 00.009-.001l.033-.003.011-.001.03-.004.012-.002a3.898 3.898 0 00.041-.008l.027-.006.015-.004.025-.007.015-.005.024-.009a.66.66 0 00.016-.006l.023-.01c.006-.001.011-.004.017-.006l.022-.01a.336.336 0 00.017-.009l.02-.01c.006-.004.011-.008.017-.01l.02-.012.017-.011.019-.013.017-.012.017-.013.018-.014.017-.014.016-.014.017-.016a.272.272 0 00.015-.015l.013-.012.004-.005.004-.004 4.025-4.275a.927.927 0 00-.009-1.268.829.829 0 00-1.21.009l-2.559 2.717v-8.252c0-.496-.383-.897-.856-.897s-.856.401-.856.897v8.251l-2.559-2.718a.829.829 0 00-1.21-.008.927.927 0 00-.009 1.268l4.025 4.275h-.001z" fill="#2395FF"/><path d="M79.382 95.275c-.472 0-.856.402-.856.897 0 1.122-.87 2.034-1.94 2.034h-7.932c-1.07 0-1.942-.912-1.942-2.034 0-.495-.383-.897-.856-.897s-.856.402-.856.897c0 2.111 1.64 3.828 3.654 3.828h7.93c2.015 0 3.654-1.717 3.654-3.828 0-.495-.383-.897-.856-.897z" fill="#2395FF"/></svg>