<svg xmlns="http://www.w3.org/2000/svg" width="86" height="107" fill="none"><path d="M0 10C0 4.477 4.477 0 10 0h54l19.071 19.071A10 10 0 0186 26.142V97c0 5.523-4.477 10-10 10H10c-5.523 0-10-4.477-10-10V10z" fill="#ECFFEC"/><path d="M0 10C0 4.477 4.477 0 10 0h54l22 22v10H0V10z" fill="#37AD83"/><path d="M48.244 21.389v-5.86h-4.892v2.159h2.04v2.617c-.084.045-.192.11-.322.195-.123.078-.29.153-.498.225-.208.071-.485.107-.83.107a2.96 2.96 0 01-1.123-.195 1.84 1.84 0 01-.781-.655c-.202-.3-.355-.686-.46-1.162-.103-.475-.155-1.048-.155-1.718V14.66c0-.677.045-1.25.136-1.719.091-.468.231-.853.42-1.152.19-.3.423-.514.703-.644.28-.137.61-.205.987-.205.436 0 .79.074 1.064.224.274.143.485.384.635.723.156.338.257.807.303 1.406h2.763c-.071-1.022-.286-1.885-.644-2.588a3.522 3.522 0 00-1.563-1.592c-.683-.358-1.559-.537-2.627-.537-.774 0-1.471.124-2.09.371a4.126 4.126 0 00-1.582 1.133c-.442.508-.78 1.146-1.015 1.914-.228.762-.342 1.657-.342 2.686v2.422c0 1.041.12 1.943.361 2.705.241.755.59 1.386 1.045 1.894a4.36 4.36 0 001.65 1.123c.645.248 1.361.371 2.15.371.891 0 1.646-.104 2.265-.312.625-.215 1.13-.462 1.514-.742.39-.287.686-.537.888-.752zM36.281 23V8.781h-2.715v8.994l-4.502-8.994H26.34V23h2.715v-8.896L33.518 23h2.763z" fill="#fff"/><path fill-rule="evenodd" clip-rule="evenodd" d="M19.816 17.99h-1.992V23h-2.851V8.781h4.843c.957 0 1.781.202 2.471.606.69.403 1.218.96 1.582 1.67.371.703.557 1.51.557 2.421 0 .912-.186 1.706-.557 2.383a3.86 3.86 0 01-1.592 1.573c-.683.37-1.504.556-2.46.556zm-.01-2.373h-1.982v-4.463h1.992c.41 0 .743.111.997.332.253.215.439.502.556.86.117.358.176.742.176 1.152 0 .404-.059.768-.176 1.094a1.56 1.56 0 01-.556.752c-.254.182-.59.273-1.006.273z" fill="#fff"/><path d="M9.67 20.53c-.287.286-.43.644-.43 1.073 0 .43.143.788.43 1.075.286.286.674.43 1.162.43.488 0 .876-.144 1.162-.43.287-.287.43-.645.43-1.075 0-.43-.143-.787-.43-1.074-.286-.293-.674-.44-1.162-.44-.488 0-.876.147-1.162.44z" fill="#fff"/><path d="M65 1l21 21v1H75c-5.523 0-10-4.477-10-10V1z" fill="#327960"/><path d="M64 0l22 22H74c-5.523 0-10-4.477-10-10V0z" fill="#A4D4C3"/><path d="M9 43a1 1 0 011-1h5a1 1 0 011 1v5a1 1 0 01-1 1h-5a1 1 0 01-1-1v-5z" fill="#A6D3C3"/><path d="M16 43a1 1 0 011-1h5a1 1 0 011 1v5a1 1 0 01-1 1h-5a1 1 0 01-1-1v-5z" fill="#ECFFEC"/><path d="M23 43a1 1 0 011-1h5a1 1 0 011 1v5a1 1 0 01-1 1h-5a1 1 0 01-1-1v-5z" fill="#A6D3C3"/><path d="M30 43a1 1 0 011-1h5a1 1 0 011 1v5a1 1 0 01-1 1h-5a1 1 0 01-1-1v-5z" fill="#ECFFEC"/><path d="M37 43a1 1 0 011-1h5a1 1 0 011 1v5a1 1 0 01-1 1h-5a1 1 0 01-1-1v-5z" fill="#A6D3C3"/><path d="M44 43a1 1 0 011-1h5a1 1 0 011 1v5a1 1 0 01-1 1h-5a1 1 0 01-1-1v-5z" fill="#ECFFEC"/><path d="M51 43a1 1 0 011-1h5a1 1 0 011 1v5a1 1 0 01-1 1h-5a1 1 0 01-1-1v-5z" fill="#A6D3C3"/><path d="M9 50a1 1 0 011-1h5a1 1 0 011 1v5a1 1 0 01-1 1h-5a1 1 0 01-1-1v-5z" fill="#ECFFEC"/><path d="M16 50a1 1 0 011-1h5a1 1 0 011 1v5a1 1 0 01-1 1h-5a1 1 0 01-1-1v-5z" fill="#A6D3C3"/><path d="M23 50a1 1 0 011-1h5a1 1 0 011 1v5a1 1 0 01-1 1h-5a1 1 0 01-1-1v-5z" fill="#ECFFEC"/><path d="M30 50a1 1 0 011-1h5a1 1 0 011 1v5a1 1 0 01-1 1h-5a1 1 0 01-1-1v-5z" fill="#A6D3C3"/><path d="M37 50a1 1 0 011-1h5a1 1 0 011 1v5a1 1 0 01-1 1h-5a1 1 0 01-1-1v-5zm14 0a1 1 0 011-1h5a1 1 0 011 1v5a1 1 0 01-1 1h-5a1 1 0 01-1-1v-5z" fill="#ECFFEC"/><path d="M44 50a1 1 0 011-1h5a1 1 0 011 1v5a1 1 0 01-1 1h-5a1 1 0 01-1-1v-5zM9 57a1 1 0 011-1h5a1 1 0 011 1v5a1 1 0 01-1 1h-5a1 1 0 01-1-1v-5z" fill="#A6D3C3"/><path d="M16 57a1 1 0 011-1h5a1 1 0 011 1v5a1 1 0 01-1 1h-5a1 1 0 01-1-1v-5z" fill="#ECFFEC"/><path d="M23 57a1 1 0 011-1h5a1 1 0 011 1v5a1 1 0 01-1 1h-5a1 1 0 01-1-1v-5z" fill="#A6D3C3"/><path d="M30 57a1 1 0 011-1h5a1 1 0 011 1v5a1 1 0 01-1 1h-5a1 1 0 01-1-1v-5z" fill="#ECFFEC"/><path d="M37 57a1 1 0 011-1h5a1 1 0 011 1v5a1 1 0 01-1 1h-5a1 1 0 01-1-1v-5z" fill="#A6D3C3"/><path d="M44 57a1 1 0 011-1h5a1 1 0 011 1v5a1 1 0 01-1 1h-5a1 1 0 01-1-1v-5z" fill="#ECFFEC"/><path d="M51 57a1 1 0 011-1h5a1 1 0 011 1v5a1 1 0 01-1 1h-5a1 1 0 01-1-1v-5z" fill="#A6D3C3"/><path d="M9 64a1 1 0 011-1h5a1 1 0 011 1v5a1 1 0 01-1 1h-5a1 1 0 01-1-1v-5z" fill="#ECFFEC"/><path d="M16 64a1 1 0 011-1h5a1 1 0 011 1v5a1 1 0 01-1 1h-5a1 1 0 01-1-1v-5z" fill="#A6D3C3"/><path d="M23 64a1 1 0 011-1h5a1 1 0 011 1v5a1 1 0 01-1 1h-5a1 1 0 01-1-1v-5z" fill="#ECFFEC"/><path d="M30 64a1 1 0 011-1h5a1 1 0 011 1v5a1 1 0 01-1 1h-5a1 1 0 01-1-1v-5z" fill="#A6D3C3"/><path d="M37 64a1 1 0 011-1h5a1 1 0 011 1v5a1 1 0 01-1 1h-5a1 1 0 01-1-1v-5zm14 0a1 1 0 011-1h5a1 1 0 011 1v5a1 1 0 01-1 1h-5a1 1 0 01-1-1v-5z" fill="#ECFFEC"/><path d="M44 64a1 1 0 011-1h5a1 1 0 011 1v5a1 1 0 01-1 1h-5a1 1 0 01-1-1v-5zM9 71a1 1 0 011-1h5a1 1 0 011 1v5a1 1 0 01-1 1h-5a1 1 0 01-1-1v-5z" fill="#A6D3C3"/><path d="M16 71a1 1 0 011-1h5a1 1 0 011 1v5a1 1 0 01-1 1h-5a1 1 0 01-1-1v-5z" fill="#ECFFEC"/><path d="M23 71a1 1 0 011-1h5a1 1 0 011 1v5a1 1 0 01-1 1h-5a1 1 0 01-1-1v-5z" fill="#A6D3C3"/><path d="M30 71a1 1 0 011-1h5a1 1 0 011 1v5a1 1 0 01-1 1h-5a1 1 0 01-1-1v-5z" fill="#ECFFEC"/><path d="M37 71a1 1 0 011-1h5a1 1 0 011 1v5a1 1 0 01-1 1h-5a1 1 0 01-1-1v-5z" fill="#A6D3C3"/><path d="M44 71a1 1 0 011-1h5a1 1 0 011 1v5a1 1 0 01-1 1h-5a1 1 0 01-1-1v-5z" fill="#ECFFEC"/><path d="M51 71a1 1 0 011-1h5a1 1 0 011 1v5a1 1 0 01-1 1h-5a1 1 0 01-1-1v-5z" fill="#A6D3C3"/><path d="M72.01 95.965l.004.004.004.005a.466.466 0 00.012.012l.016.015.017.015a.55.55 0 00.016.015l.017.014.017.014.018.013.017.013a.334.334 0 00.019.012c.006.004.011.008.018.011l.02.012.017.01.02.01c.006.003.011.007.017.009l.022.01.016.007.024.01.015.006a.308.308 0 00.025.008l.015.005a.519.519 0 00.026.008l.014.004.027.006.013.003.029.005.012.002.03.004.011.001c.01.002.021.002.032.003h.01a.71.71 0 00.04.002l.041-.001a.06.06 0 00.009-.001l.033-.003.011-.001.03-.004.012-.002a3.898 3.898 0 00.041-.008l.027-.006.015-.004.025-.007.015-.005.024-.009a.66.66 0 00.016-.006l.023-.01c.006-.001.011-.004.017-.006l.022-.01a.336.336 0 00.017-.009l.02-.01c.006-.004.011-.008.017-.01l.02-.012.017-.011.019-.013.017-.012.017-.013.018-.014.017-.014.016-.014.017-.016a.272.272 0 00.015-.015l.013-.012.004-.005.004-.004 4.025-4.275a.927.927 0 00-.009-1.268.829.829 0 00-1.21.009l-2.559 2.717v-8.252c0-.496-.383-.897-.856-.897s-.856.401-.856.897v8.251l-2.559-2.718a.829.829 0 00-1.21-.008.927.927 0 00-.009 1.268l4.025 4.275h-.001z" fill="#2395FF"/><path d="M79.382 95.275c-.472 0-.856.402-.856.897 0 1.122-.87 2.034-1.94 2.034h-7.932c-1.07 0-1.942-.912-1.942-2.034 0-.495-.383-.897-.856-.897s-.856.402-.856.897c0 2.111 1.64 3.828 3.654 3.828h7.93c2.015 0 3.654-1.717 3.654-3.828 0-.495-.383-.897-.856-.897z" fill="#2395FF"/></svg>