<svg xmlns="http://www.w3.org/2000/svg" width="86" height="107" fill="none"><path d="M0 10C0 4.477 4.477 0 10 0h54l19.071 19.071A10 10 0 0186 26.142V97c0 5.523-4.477 10-10 10H10c-5.523 0-10-4.477-10-10V10z" fill="#E7F3FF"/><path d="M0 10C0 4.477 4.477 0 10 0h54l22 22v10H0V10z" fill="#2395FF"/><path fill-rule="evenodd" clip-rule="evenodd" d="M24.963 14.787v2.373c0 1.003-.124 1.882-.371 2.637-.241.749-.586 1.377-1.035 1.885-.443.5-.98.879-1.612 1.133-.625.253-1.318.38-2.08.38a5.554 5.554 0 01-2.09-.38 4.407 4.407 0 01-1.62-1.133c-.45-.508-.798-1.136-1.046-1.885-.247-.755-.37-1.634-.37-2.637v-2.373c0-1.029.12-1.927.36-2.695.242-.775.59-1.42 1.046-1.934.455-.52.996-.911 1.62-1.172.626-.267 1.319-.4 2.08-.4.762 0 1.456.133 2.08.4.626.26 1.166.651 1.622 1.172.456.514.804 1.16 1.045 1.934.247.768.37 1.666.37 2.695zM22.12 17.16v-2.392c0-.678-.049-1.254-.146-1.729-.098-.482-.245-.876-.44-1.182a1.85 1.85 0 00-.713-.673 2.117 2.117 0 00-.976-.215c-.371 0-.7.071-.987.215-.28.143-.517.367-.713.673-.188.306-.332.7-.43 1.182a9.451 9.451 0 00-.136 1.729v2.392c0 .651.049 1.208.147 1.67.097.462.244.84.439 1.133.195.293.433.511.713.654.286.137.615.205.986.205.365 0 .687-.068.967-.205.287-.143.524-.361.713-.654.189-.293.332-.67.43-1.133.097-.462.146-1.019.146-1.67zM30.754 23c.84 0 1.598-.134 2.275-.4a4.684 4.684 0 001.729-1.163c.482-.514.853-1.142 1.113-1.884s.39-1.595.39-2.559v-2.197c0-.957-.13-1.81-.39-2.559-.26-.748-.631-1.377-1.113-1.884a4.737 4.737 0 00-1.729-1.172c-.67-.267-1.416-.4-2.236-.4h-3.75V23h3.71zm-.85-2.363h.85c.69 0 1.227-.124 1.611-.371.384-.248.654-.638.81-1.172.164-.534.245-1.234.245-2.1v-2.217c0-.657-.042-1.214-.127-1.67-.085-.462-.228-.833-.43-1.113a1.785 1.785 0 00-.81-.635c-.339-.136-.759-.205-1.26-.205h-.889v9.483z" fill="#fff"/><path d="M43.195 23V11.154h3.535V8.781h-9.843v2.373h3.466V23h2.842zM9.67 20.53c-.287.286-.43.644-.43 1.073 0 .43.143.788.43 1.075.286.286.674.43 1.162.43.488 0 .876-.144 1.162-.43.287-.287.43-.645.43-1.075 0-.43-.143-.787-.43-1.074-.286-.293-.674-.44-1.162-.44-.488 0-.876.147-1.162.44z" fill="#fff"/><path d="M65 1l21 21v1H75c-5.523 0-10-4.477-10-10V1z" fill="#356EA2"/><path d="M64 0l22 22H74c-5.523 0-10-4.477-10-10V0z" fill="#63B4FF"/><path d="M9 45.5a3.5 3.5 0 013.5-3.5h49a3.5 3.5 0 110 7h-49A3.5 3.5 0 019 45.5zm0 14a3.5 3.5 0 013.5-3.5h39.523a3.5 3.5 0 110 7H12.5A3.5 3.5 0 019 59.5zm0 14a3.5 3.5 0 013.5-3.5h29.185a3.5 3.5 0 110 7H12.5A3.5 3.5 0 019 73.5z" fill="#A1C9F2"/><path d="M72.01 95.965l.004.004.004.005a.466.466 0 00.012.012l.016.015.017.015a.55.55 0 00.016.015l.017.014.017.014.018.013.017.013a.334.334 0 00.019.012c.006.004.011.008.018.011l.02.012.017.01.02.01c.006.003.011.007.017.009l.022.01.016.007.024.01.015.006a.308.308 0 00.025.008l.015.005a.519.519 0 00.026.008l.014.004.027.006.013.003.029.005.012.002.03.004.011.001c.01.002.021.002.032.003h.01a.71.71 0 00.04.002l.041-.001a.06.06 0 00.009-.001l.033-.003.011-.001.03-.004.012-.002a3.898 3.898 0 00.041-.008l.027-.006.015-.004.025-.007.015-.005.024-.009a.66.66 0 00.016-.006l.023-.01c.006-.001.011-.004.017-.006l.022-.01a.336.336 0 00.017-.009l.02-.01c.006-.004.011-.008.017-.01l.02-.012.017-.011.019-.013.017-.012.017-.013.018-.014.017-.014.016-.014.017-.016a.272.272 0 00.015-.015l.013-.012.004-.005.004-.004 4.025-4.275a.927.927 0 00-.009-1.268.829.829 0 00-1.21.009l-2.559 2.717v-8.252c0-.496-.383-.897-.856-.897s-.856.401-.856.897v8.251l-2.559-2.718a.829.829 0 00-1.21-.008.927.927 0 00-.009 1.268l4.025 4.275h-.001z" fill="#2395FF"/><path d="M79.382 95.275c-.472 0-.856.402-.856.897 0 1.122-.87 2.034-1.94 2.034h-7.932c-1.07 0-1.942-.912-1.942-2.034 0-.495-.383-.897-.856-.897s-.856.402-.856.897c0 2.111 1.64 3.828 3.654 3.828h7.93c2.015 0 3.654-1.717 3.654-3.828 0-.495-.383-.897-.856-.897z" fill="#2395FF"/></svg>