<svg xmlns="http://www.w3.org/2000/svg" width="86" height="107" fill="none"><path d="M0 10C0 4.477 4.477 0 10 0h54l19.071 19.071A10 10 0 0186 26.142V97c0 5.523-4.477 10-10 10H10c-5.523 0-10-4.477-10-10V10z" fill="#E7F3FF"/><path d="M0 10C0 4.477 4.477 0 10 0h54l22 22v10H0V10z" fill="#2395FF"/><path d="M45.129 18.264h2.842c-.04 1.067-.254 1.97-.645 2.705a3.914 3.914 0 01-1.67 1.66c-.716.377-1.582.566-2.597.566-.788 0-1.488-.13-2.1-.39a4.196 4.196 0 01-1.563-1.172c-.43-.514-.755-1.15-.976-1.904-.215-.762-.322-1.638-.322-2.627V14.69c0-.99.114-1.866.342-2.627.234-.762.566-1.4.995-1.915.437-.52.96-.911 1.573-1.171.618-.267 1.315-.4 2.09-.4 1.035 0 1.9.194 2.597.585.697.39 1.234.96 1.612 1.71.384.741.615 1.65.693 2.724h-2.861c-.013-.677-.088-1.208-.225-1.592-.13-.39-.339-.664-.625-.82-.286-.163-.684-.244-1.191-.244-.378 0-.703.068-.977.205-.273.13-.498.341-.674.634-.175.293-.306.677-.39 1.153a10.94 10.94 0 00-.117 1.738v2.432c0 .67.035 1.243.107 1.718.072.47.185.853.342 1.153.156.3.367.517.634.654.274.137.619.205 1.036.205.481 0 .869-.072 1.162-.215.3-.143.52-.4.664-.771.143-.371.224-.899.244-1.582zm11.113-9.483h3.155l-3.428 7.041L59.465 23h-3.281l-2.022-4.854L52.141 23h-3.213l3.554-7.236-3.476-6.983h3.271l2.032 4.746 1.933-4.746z" fill="#fff"/><path fill-rule="evenodd" clip-rule="evenodd" d="M36.272 17.16v-2.373c0-1.029-.124-1.927-.372-2.695-.24-.775-.589-1.42-1.044-1.934a4.358 4.358 0 00-1.622-1.172c-.625-.267-1.318-.4-2.08-.4-.761 0-1.455.133-2.08.4a4.358 4.358 0 00-1.62 1.172c-.457.514-.805 1.16-1.046 1.934-.24.768-.361 1.666-.361 2.695v2.373c0 1.003.124 1.882.371 2.637.247.749.596 1.377 1.045 1.885.456.5.996.879 1.621 1.133a5.57 5.57 0 002.09.38c.762 0 1.455-.127 2.08-.38a4.218 4.218 0 001.611-1.133c.45-.508.794-1.136 1.035-1.885.248-.755.372-1.634.372-2.637zm-2.842-2.392v2.392c0 .651-.05 1.208-.147 1.67-.098.462-.24.84-.43 1.133a1.801 1.801 0 01-.712.654c-.28.137-.603.205-.967.205-.371 0-.7-.068-.986-.205a1.892 1.892 0 01-.713-.654c-.196-.293-.342-.67-.44-1.133-.098-.462-.146-1.019-.146-1.67v-2.392c0-.678.045-1.254.136-1.729.098-.482.241-.876.43-1.182.195-.306.433-.53.713-.673.286-.144.615-.215.986-.215s.697.071.977.215c.28.143.517.367.713.673.195.306.341.7.44 1.182.097.475.146 1.052.146 1.729zM18.684 23h-3.711V8.781h3.75c.82 0 1.565.134 2.236.4.67.268 1.247.658 1.729 1.173.481.507.852 1.136 1.113 1.884.26.749.39 1.602.39 2.559v2.197c0 .964-.13 1.817-.39 2.559-.26.742-.632 1.37-1.113 1.884a4.685 4.685 0 01-1.729 1.163c-.677.266-1.436.4-2.275.4zm0-2.363h-.85v-9.483h.889c.501 0 .92.069 1.26.205.338.137.608.349.81.635.202.28.345.651.43 1.113.084.456.127 1.013.127 1.67v2.217c0 .866-.082 1.566-.245 2.1-.156.534-.426.924-.81 1.172-.384.247-.921.37-1.611.37z" fill="#fff"/><path d="M9.67 20.53c-.287.286-.43.644-.43 1.073 0 .43.143.788.43 1.075.286.286.674.43 1.162.43.488 0 .876-.144 1.162-.43.287-.287.43-.645.43-1.075 0-.43-.143-.787-.43-1.074-.286-.293-.674-.44-1.162-.44-.488 0-.876.147-1.162.44z" fill="#fff"/><path d="M65 1l21 21v1H75c-5.523 0-10-4.477-10-10V1z" fill="#356EA2"/><path d="M64 0l22 22H74c-5.523 0-10-4.477-10-10V0z" fill="#63B4FF"/><path d="M9 45.5a3.5 3.5 0 013.5-3.5h49a3.5 3.5 0 110 7h-49A3.5 3.5 0 019 45.5zm0 14a3.5 3.5 0 013.5-3.5h39.523a3.5 3.5 0 110 7H12.5A3.5 3.5 0 019 59.5zm0 14a3.5 3.5 0 013.5-3.5h29.185a3.5 3.5 0 110 7H12.5A3.5 3.5 0 019 73.5z" fill="#A1C9F2"/><path d="M72.01 95.965l.004.004.004.005a.466.466 0 00.012.012l.016.015.017.015a.55.55 0 00.016.015l.017.014.017.014.018.013.017.013a.334.334 0 00.019.012c.006.004.011.008.018.011l.02.012.017.01.02.01c.006.003.011.007.017.009l.022.01.016.007.024.01.015.006a.308.308 0 00.025.008l.015.005a.519.519 0 00.026.008l.014.004.027.006.013.003.029.005.012.002.03.004.011.001c.01.002.021.002.032.003h.01a.71.71 0 00.04.002l.041-.001a.06.06 0 00.009-.001l.033-.003.011-.001.03-.004.012-.002a3.898 3.898 0 00.041-.008l.027-.006.015-.004.025-.007.015-.005.024-.009a.66.66 0 00.016-.006l.023-.01c.006-.001.011-.004.017-.006l.022-.01a.336.336 0 00.017-.009l.02-.01c.006-.004.011-.008.017-.01l.02-.012.017-.011.019-.013.017-.012.017-.013.018-.014.017-.014.016-.014.017-.016a.272.272 0 00.015-.015l.013-.012.004-.005.004-.004 4.025-4.275a.927.927 0 00-.009-1.268.829.829 0 00-1.21.009l-2.559 2.717v-8.252c0-.496-.383-.897-.856-.897s-.856.401-.856.897v8.251l-2.559-2.718a.829.829 0 00-1.21-.008.927.927 0 00-.009 1.268l4.025 4.275h-.001z" fill="#2395FF"/><path d="M79.382 95.275c-.472 0-.856.402-.856.897 0 1.122-.87 2.034-1.94 2.034h-7.932c-1.07 0-1.942-.912-1.942-2.034 0-.495-.383-.897-.856-.897s-.856.402-.856.897c0 2.111 1.64 3.828 3.654 3.828h7.93c2.015 0 3.654-1.717 3.654-3.828 0-.495-.383-.897-.856-.897z" fill="#2395FF"/></svg>