<svg xmlns="http://www.w3.org/2000/svg" width="86" height="107" fill="none"><path d="M0 10C0 4.477 4.477 0 10 0h54l19.071 19.071A10 10 0 0186 26.142V97c0 5.523-4.477 10-10 10H10c-5.523 0-10-4.477-10-10V10z" fill="#DEEED6"/><path d="M0 10C0 4.477 4.477 0 10 0h54l22 22v10H0V10z" fill="#7ABE59"/><path d="M41.682 18.566a3.3 3.3 0 01.068.694c0 .306-.049.58-.147.82a1.2 1.2 0 01-.488.576c-.221.143-.52.215-.898.215a2.87 2.87 0 01-.889-.127 1.717 1.717 0 01-.644-.4 1.675 1.675 0 01-.391-.723 4.179 4.179 0 01-.127-1.103h-2.861c0 .807.127 1.507.38 2.1a3.997 3.997 0 001.045 1.454c.45.378.967.661 1.553.85a6.244 6.244 0 001.865.273c.677 0 1.29-.094 1.836-.283a4.117 4.117 0 001.416-.8c.391-.352.687-.769.89-1.25a4.09 4.09 0 00.312-1.622c0-.599-.085-1.133-.254-1.601a3.816 3.816 0 00-.752-1.26 5.26 5.26 0 00-1.24-1.016 10.717 10.717 0 00-1.71-.84c-.331-.13-.638-.263-.918-.4a5.422 5.422 0 01-.712-.42 1.915 1.915 0 01-.479-.498c-.11-.189-.166-.4-.166-.635 0-.312.055-.592.166-.84a1.34 1.34 0 01.528-.595c.24-.15.543-.225.908-.225.39 0 .71.088.957.264.247.176.426.42.537.732.117.306.176.661.176 1.065h2.851c0-.853-.185-1.608-.556-2.266a3.957 3.957 0 00-1.553-1.553c-.664-.377-1.452-.566-2.363-.566-.671 0-1.28.094-1.827.283a4.28 4.28 0 00-1.416.81 3.553 3.553 0 00-.937 1.25 4.008 4.008 0 00-.322 1.631c0 .612.113 1.146.341 1.602.235.45.55.84.948 1.172.397.332.843.625 1.338.879.494.247 1.005.482 1.533.703.442.189.8.371 1.074.547.28.176.491.351.635.527.15.176.247.368.293.576zM34.055 23v-2.363h-5.03V8.78h-2.86V23h7.89zM17.492 8.781l2.031 4.746 1.934-4.746h3.154l-3.427 7.041L24.68 23h-3.282l-2.021-4.854L17.356 23h-3.213l3.554-7.236-3.476-6.983h3.271zM9.67 20.53c-.287.286-.43.644-.43 1.073 0 .43.143.788.43 1.075.286.286.674.43 1.162.43.488 0 .876-.144 1.162-.43.287-.287.43-.645.43-1.075 0-.43-.143-.787-.43-1.074-.286-.293-.674-.44-1.162-.44-.488 0-.876.147-1.162.44z" fill="#fff"/><path d="M65 1l21 21v1H75c-5.523 0-10-4.477-10-10V1z" fill="#5B9F3B"/><path d="M64 0l22 22H74c-5.523 0-10-4.477-10-10V0z" fill="#AFDE99"/><path fill-rule="evenodd" clip-rule="evenodd" d="M9 75a4 4 0 004 4h59a4 4 0 004-4V46a4 4 0 00-4-4H13a4 4 0 00-4 4v29zm23-28v11H14V47h18zM14 63h18v11H14V63zm23 0v11h15.75V63H37zm34 11H57.75V63H71v11zm0-16H57.75V47H71v11zM37 47h15.75v11H37V47z" fill="#B2D3A2"/><path d="M72.01 95.965l.004.004.004.005a.466.466 0 00.012.012l.016.015.017.015a.55.55 0 00.016.015l.017.014.017.014.018.013.017.013a.334.334 0 00.019.012c.006.004.011.008.018.011l.02.012.017.01.02.01c.006.003.011.007.017.009l.022.01.016.007.024.01.015.006a.308.308 0 00.025.008l.015.005a.519.519 0 00.026.008l.014.004.027.006.013.003.029.005.012.002.03.004.011.001c.01.002.021.002.032.003h.01a.71.71 0 00.04.002l.041-.001a.06.06 0 00.009-.001l.033-.003.011-.001.03-.004.012-.002a3.898 3.898 0 00.041-.008l.027-.006.015-.004.025-.007.015-.005.024-.009a.66.66 0 00.016-.006l.023-.01c.006-.001.011-.004.017-.006l.022-.01a.336.336 0 00.017-.009l.02-.01c.006-.004.011-.008.017-.01l.02-.012.017-.011.019-.013.017-.012.017-.013.018-.014.017-.014.016-.014.017-.016a.272.272 0 00.015-.015l.013-.012.004-.005.004-.004 4.025-4.275a.927.927 0 00-.009-1.268.829.829 0 00-1.21.009l-2.559 2.717v-8.252c0-.496-.383-.897-.856-.897s-.856.401-.856.897v8.251l-2.559-2.718a.829.829 0 00-1.21-.008.927.927 0 00-.009 1.268l4.025 4.275h-.001z" fill="#2395FF"/><path d="M79.382 95.275c-.472 0-.856.402-.856.897 0 1.122-.87 2.034-1.94 2.034h-7.932c-1.07 0-1.942-.912-1.942-2.034 0-.495-.383-.897-.856-.897s-.856.402-.856.897c0 2.111 1.64 3.828 3.654 3.828h7.93c2.015 0 3.654-1.717 3.654-3.828 0-.495-.383-.897-.856-.897z" fill="#2395FF"/></svg>