<svg xmlns="http://www.w3.org/2000/svg" width="86" height="107" fill="none"><path d="M0 10C0 4.477 4.477 0 10 0h54l19.071 19.071A10 10 0 0186 26.142V97c0 5.523-4.477 10-10 10H10c-5.523 0-10-4.477-10-10V10z" fill="#EAEAFF"/><path d="M0 10C0 4.477 4.477 0 10 0h54l22 22v10H0V10z" fill="#9796D8"/><path d="M23.791 20.637V23h-9.209v-1.729l5.822-10.117h-5.88V8.781h9.16v1.67L17.92 20.637h5.87zM28.547 23V8.781h-2.842V23h2.842z" fill="#fff"/><path fill-rule="evenodd" clip-rule="evenodd" d="M33.84 17.99h1.992c.957 0 1.777-.185 2.461-.556a3.86 3.86 0 001.592-1.573c.37-.677.556-1.471.556-2.383 0-.91-.185-1.718-.556-2.421a4.032 4.032 0 00-1.582-1.67c-.69-.404-1.514-.606-2.471-.606h-4.844V23h2.852v-5.01zm0-2.373v-4.463h1.992c.41 0 .742.111.996.332.254.215.44.502.557.86.117.358.175.742.175 1.152 0 .404-.058.768-.175 1.094-.117.319-.303.57-.557.752-.254.182-.59.273-1.006.273H33.84z" fill="#fff"/><path d="M9.67 20.53c-.287.286-.43.644-.43 1.073 0 .43.143.788.43 1.075.286.286.674.43 1.162.43.488 0 .876-.144 1.162-.43.287-.287.43-.645.43-1.075 0-.43-.143-.787-.43-1.074-.286-.293-.674-.44-1.162-.44-.488 0-.876.147-1.162.44z" fill="#fff"/><path d="M65 1l21 21v1H75c-5.523 0-10-4.477-10-10V1z" fill="#5D5C96"/><path d="M64 0l22 22H74c-5.523 0-10-4.477-10-10V0z" fill="#BAB8FF"/><path fill-rule="evenodd" clip-rule="evenodd" d="M15.783 35a2.5 2.5 0 012.5 2.5v2h.76a2.5 2.5 0 010 5h-.76v3h.76a2.5 2.5 0 010 5h-.76v3h.76a2.5 2.5 0 010 5h-.76v3.057A4.501 4.501 0 0122.065 68v9a4.5 4.5 0 01-4.5 4.5H14A4.5 4.5 0 019.5 77v-9a4.5 4.5 0 013.783-4.443V60.5h-.74a2.5 2.5 0 010-5h.74v-3h-.74a2.5 2.5 0 010-5h.74v-3h-.74a2.5 2.5 0 010-5h.74v-2a2.5 2.5 0 012.5-2.5zM14.5 68.5v8h2.565v-8H14.5z" fill="#9796D8"/><path d="M72.01 95.965l.004.004.004.005a.466.466 0 00.012.012l.016.015.017.015a.55.55 0 00.016.015l.017.014.017.014.018.013.017.013a.334.334 0 00.019.012c.006.004.011.008.018.011l.02.012.017.01.02.01c.006.003.011.007.017.009l.022.01.016.007.024.01.015.006a.308.308 0 00.025.008l.015.005a.519.519 0 00.026.008l.014.004.027.006.013.003.029.005.012.002.03.004.011.001c.01.002.021.002.032.003h.01a.71.71 0 00.04.002l.041-.001a.06.06 0 00.009-.001l.033-.003.011-.001.03-.004.012-.002a3.898 3.898 0 00.041-.008l.027-.006.015-.004.025-.007.015-.005.024-.009a.66.66 0 00.016-.006l.023-.01c.006-.001.011-.004.017-.006l.022-.01a.336.336 0 00.017-.009l.02-.01c.006-.004.011-.008.017-.01l.02-.012.017-.011.019-.013.017-.012.017-.013.018-.014.017-.014.016-.014.017-.016a.272.272 0 00.015-.015l.013-.012.004-.005.004-.004 4.025-4.275a.927.927 0 00-.009-1.268.829.829 0 00-1.21.009l-2.559 2.717v-8.252c0-.496-.383-.897-.856-.897s-.856.401-.856.897v8.251l-2.559-2.718a.829.829 0 00-1.21-.008.927.927 0 00-.009 1.268l4.025 4.275h-.001z" fill="#2395FF"/><path d="M79.382 95.275c-.472 0-.856.402-.856.897 0 1.122-.87 2.034-1.94 2.034h-7.932c-1.07 0-1.942-.912-1.942-2.034 0-.495-.383-.897-.856-.897s-.856.402-.856.897c0 2.111 1.64 3.828 3.654 3.828h7.93c2.015 0 3.654-1.717 3.654-3.828 0-.495-.383-.897-.856-.897z" fill="#2395FF"/></svg>