<svg xmlns="http://www.w3.org/2000/svg" width="97" height="98" fill="none"><path d="M48.5 97.5C75.286 97.5 97 75.786 97 49S75.286.5 48.5.5 0 22.214 0 49s21.714 48.5 48.5 48.5z" fill="#EE4046"/><path d="M18.768 39.3c1.592 0 2.703.96 2.703 3.003 0 2.042-1.11 2.823-2.703 2.823h-4.654v1.982h3.093c1.592 0 2.883.48 2.883 2.523 0 2.042-1.322 2.552-2.883 2.552h-3.093v3.544c0 1.982-.841 2.793-2.973 2.793h-.57c-2.223 0-2.974-.811-2.974-2.793V42.153c0-2.042.84-2.823 2.973-2.823h8.198v-.03zm6.728 6.847c2.312 0 2.973.811 2.973 2.793v6.787c0 1.982-.66 2.793-2.973 2.793h-.09c-2.312 0-2.973-.811-2.973-2.793V48.94c0-1.982.66-2.793 2.973-2.793h.09zm3.093-3.784c0 2.072-1.381 2.853-3.153 2.853-1.742 0-3.093-.81-3.093-2.853 0-2.072 1.351-2.913 3.093-2.913 1.802 0 3.153.841 3.153 2.913zm14.024 4.024c0 .931-.39 1.832-1.351 2.313-.6-.3-1.682-.66-2.793-.66-.961 0-1.592.12-1.592.57 0 .45.51.69 1.922 1.05 2.703.721 4.114 1.983 4.114 4.085 0 3.273-3.303 4.925-6.756 4.925-3.784 0-6.397-1.021-6.397-2.943 0-1.562.63-2.282 1.381-2.523.541.33 2.133.931 3.574.931 1.351 0 1.562-.3 1.562-.66 0-.36-.54-.57-2.373-1.081-2.162-.601-3.604-1.742-3.604-4.235 0-3.123 2.854-5.105 6.667-5.105 3.484 0 5.646 1.261 5.646 3.333zm4.774-7.057c2.313 0 2.973.81 2.973 2.793v4.234c.42-1.441 1.502-3.363 4.295-3.363 2.252 0 4.414 1.531 4.414 5.556v7.117c0 2.012-.84 2.823-3.003 2.823h-.21c-1.892 0-2.853-.811-2.853-2.823v-5.196c0-1.05-.51-1.44-1.201-1.44-.841 0-1.352.78-1.412 2.251v4.385c0 1.982-.66 2.793-2.973 2.793h-.09c-2.312 0-2.973-.811-2.973-2.793V42.093c0-1.982.66-2.793 2.973-2.793h.06v.03zm16.307 0c2.313 0 2.974.81 2.974 2.793v6.637c1.08-1.412 1.621-2.643 2.042-3.634.51-1.261 1.681-1.952 3.243-1.952h1.892c.96 0 1.682.51 1.682 1.412 0 1.14-1.412 3.603-3.934 5.795a26.71 26.71 0 013.273 4.565c.45.841.69 1.322.69 1.982 0 .931-.69 1.592-2.011 1.592h-1.892c-1.141 0-2.313-.721-2.973-2.132-.601-1.232-1.051-2.553-2.012-3.904v3.243c0 1.982-.661 2.793-2.974 2.793h-.09c-2.312 0-2.973-.811-2.973-2.793V42.153c0-1.982.661-2.793 2.973-2.793h.09v-.03zm17.99 14.085c0 .66.51 1.2 1.322 1.2 1.02 0 1.651-.78 1.651-1.771v-.51c-.36-.09-1.17-.18-1.561-.18-.901 0-1.412.39-1.412 1.26zm8.379-3.754l-.03 3.183c0 1.712.66 2.793 1.171 3.093-.09.961-.84 2.703-3.363 2.703-1.652 0-2.493-.78-3.063-2.162l-.06-.03c-.24.78-1.322 2.192-3.694 2.192-2.523 0-4.956-1.562-4.956-4.715 0-3.183 2.853-4.565 5.706-4.565 1.262 0 1.982.15 2.853.3v-.3c0-.84-.96-1.32-2.552-1.32-1.862 0-2.973.39-3.904.87-.751-.54-1.442-1.111-1.442-2.222 0-1.832 2.313-3.634 6.427-3.634 5.375-.03 6.937 2.793 6.907 6.607z" fill="#fff"/></svg>