<svg xmlns="http://www.w3.org/2000/svg" width="211" height="35" fill="none"><path d="M6.306.5l14.43 9.633H0l20.793 14.11v.114h-14.6l14.6 10.086h7.613V19.37l-12.67-5.213h11.818l-5.17-2.154 6.022-.056L42.382 34.5h8.408V.5h-7.613v22.383L29.258.5H6.306zm76.072 26.01h-3.182l-9.317-11.787V26.51h-3.693V8.433h3.181l9.318 11.787V8.433h3.692V26.51zm18.975-2.437c-3.636 3.627-9.602 3.627-13.237 0a8.883 8.883 0 01-2.728-6.63c-.056-2.493.966-4.873 2.727-6.63 3.636-3.626 9.602-3.626 13.238 0a8.883 8.883 0 012.727 6.63c.057 2.494-.909 4.93-2.727 6.63zM90.729 21.58c2.102 2.21 5.624 2.267 7.84.17l.17-.17c1.08-1.077 1.648-2.55 1.648-4.08 0-1.53-.568-3.003-1.648-4.08-2.102-2.21-5.624-2.267-7.84-.17l-.17.17c-1.08 1.077-1.648 2.55-1.648 4.08a5.93 5.93 0 001.648 4.08zm16.362 4.93V8.433h6.931a5.618 5.618 0 014.033 1.53c1.023 1.02 1.591 2.38 1.534 3.797 0 2.38-1.249 3.967-3.749 4.703l6.533 8.047h-4.488l-6.249-7.593h-.852v7.593h-3.693zm3.693-10.767h2.783c.625.057 1.193-.17 1.705-.51.397-.34.625-.906.625-1.416 0-.567-.228-1.077-.625-1.417a2.35 2.35 0 00-1.705-.51h-2.783v3.853zm15.85 10.767V11.947h-4.829V8.433h13.408v3.514h-4.886V26.51h-3.693zm11.135 0V8.433h3.693v7.197h7.84V8.433h3.693V26.51h-3.693v-7.367h-7.84v7.367h-3.693zm24.657 0V8.433h11.021v3.514h-7.329v3.74h5.739V19.2h-5.739v7.31h-3.692zm13.805-18.077h3.693V26.51h-3.693V8.433zm7.215 18.077V8.433h6.931a5.622 5.622 0 014.034 1.53c1.023 1.02 1.591 2.38 1.534 3.797 0 2.38-1.25 3.967-3.75 4.703l6.534 8.047h-4.432l-6.249-7.593h-.909v7.593h-3.693zm3.693-10.767h2.784c.625.057 1.193-.17 1.704-.51.398-.34.625-.906.625-1.416 0-.567-.227-1.077-.625-1.417a2.345 2.345 0 00-1.704-.51h-2.784v3.853zm12.555 10.767V8.433H211v3.514h-7.613v3.74h6.022V19.2h-6.022v3.797h7.556v3.513h-11.249z" fill="#D43614"/></svg>