<svg xmlns="http://www.w3.org/2000/svg" width="152" height="64" fill="none"><path d="M.805 47.614V2.111h45.133v20.012L30.388 47.61l-29.583.005z" fill="#E30613"/><path d="M29.712 18.501V4.163H17.035V18.5H2.844v12.73h14.19v14.343h12.678V31.232h8.392l5.801-9.056v-3.675H29.712zm-6.348 16.168c-1.162 0-2.033-.5-3.004-1.52v1.246h-1.244v-4.989h1.156c0 3.04 1.466 3.55 2.538 3.55 1.284 0 2.338-.856 2.338-2.241 0-3.018-6.044-7.649-6.044-11.87 0-2.57 1.876-3.977 4.284-3.977 1.253 0 2.213.671 3.002 1.569v-1.425h1.187v4.97h-1.093c0-2.238-1.123-3.525-2.417-3.525-1.445 0-2.174.757-2.174 1.918 0 2.67 6.068 7.402 6.068 11.666 0 3.468-2.42 4.628-4.59 4.628h-.006z" fill="#FE0"/><path d="M3.333 54.333L0 63.749h2.042l.634-1.935h3.44l.617 1.935h2.114l-3.304-9.416h-2.21zm-.13 5.859l1.213-3.704 1.18 3.704H3.202zm10.305-3.572c-.541 0-.98.143-1.317.428-.206.172-.448.49-.726.954v-1.214H9.74v6.963h1.817v-3.328c0-.559.07-.97.213-1.24.247-.476.733-.715 1.46-.715a4.612 4.612 0 01.522.03v-1.865l-.155-.009-.087-.003h-.002zm4.922.012c-.507 0-.924.109-1.251.32a2.68 2.68 0 00-.76.74v-3.347h-1.806v9.404h1.78v-.876c.242.343.466.58.676.716.35.23.809.346 1.383.346.913 0 1.625-.355 2.132-1.067.51-.712.766-1.608.766-2.69 0-1.084-.26-1.895-.775-2.556-.516-.66-1.233-.992-2.145-.992v.002zm.636 5.233c-.26.38-.625.57-1.093.57-.541 0-.944-.197-1.21-.588-.263-.392-.397-.885-.397-1.48 0-.508.066-.923.192-1.24.247-.602.7-.9 1.363-.9s1.1.307 1.341.92c.127.322.192.732.192 1.227 0 .617-.13 1.116-.39 1.494l.002-.003zm9.428-3.908a2.825 2.825 0 00-1.194-1.029 3.929 3.929 0 00-1.625-.325c-1.012 0-1.836.322-2.47.966-.633.644-.95 1.57-.95 2.776 0 1.287.351 2.215 1.053 2.789a3.747 3.747 0 002.433.855c1.115 0 1.98-.338 2.6-1.016.396-.426.619-.846.671-1.26h-1.845a1.569 1.569 0 01-.37.483c-.257.211-.593.319-1.004.319-.388 0-.72-.088-.997-.26-.455-.283-.693-.772-.722-1.471h5.03c.01-.603-.013-1.063-.06-1.382a3.457 3.457 0 00-.548-1.442l-.002-.003zm-4.377 1.622c.065-.456.224-.812.479-1.08.256-.266.617-.397 1.078-.397.426 0 .781.126 1.07.375.291.25.452.617.482 1.102h-3.109zm7.625-5.303h-1.83v1.68h1.83v-1.68zm0 2.51h-1.83v6.963h1.83v-6.963zm3.725-1.876h-1.788v1.942h-.96v1.294h.96v4.289c0 .433.101.753.303.964.313.328.896.477 1.752.446l.854-.03v-1.362l-.18.009-.178.003c-.364 0-.585-.034-.659-.103-.068-.071-.106-.25-.106-.534v-3.68h1.12v-1.294h-1.12V54.91l.002-.001zm7.974 3.047a2.793 2.793 0 00-1.193-1.029 3.917 3.917 0 00-1.625-.325c-1.011 0-1.833.322-2.47.966-.634.644-.948 1.57-.948 2.776 0 1.287.349 2.215 1.055 2.789.7.571 1.513.855 2.431.855 1.114 0 1.98-.338 2.597-1.016.399-.426.623-.846.671-1.26h-1.845a1.572 1.572 0 01-.372.483c-.256.211-.59.319-1.004.319-.384 0-.718-.088-.993-.26-.453-.283-.695-.772-.724-1.471h5.032c.01-.603-.01-1.063-.061-1.382a3.41 3.41 0 00-.549-1.442l-.002-.003zm-4.376 1.622c.065-.456.226-.812.48-1.08.258-.266.614-.397 1.078-.397.426 0 .784.126 1.07.375.29.25.45.617.483 1.102h-3.111zm9.654-2.959c-.54 0-.98.143-1.318.428-.208.172-.45.49-.73.954v-1.214h-1.724v6.963h1.82v-3.328c0-.559.07-.97.21-1.24.248-.476.736-.715 1.462-.715.054 0 .126 0 .215.007.09.004.191.011.305.024v-1.866l-.156-.009-.083-.003h-.001zm4.158 2.618H49.34v1.728h3.536v-1.728zm6.313-.848l-1.637-.388c-.636-.149-1.047-.28-1.242-.391-.304-.166-.454-.417-.454-.752 0-.366.152-.653.459-.855.309-.206.72-.306 1.237-.306.462 0 .848.078 1.159.235.471.238.722.64.756 1.208h1.874c-.032-1-.402-1.764-1.106-2.29-.704-.527-1.551-.788-2.55-.788-1.193 0-2.098.277-2.713.836-.614.559-.925 1.258-.925 2.102 0 .925.316 1.606.946 2.039.369.26 1.055.5 2.048.723l1.01.223c.591.128 1.023.273 1.297.44.273.172.412.412.412.724 0 .531-.28.895-.836 1.092-.293.102-.677.153-1.145.153-.785 0-1.341-.193-1.665-.581-.176-.213-.296-.535-.353-.965h-1.865c0 .98.354 1.75 1.056 2.31.708.559 1.672.841 2.903.841s2.134-.286 2.793-.854c.663-.57.993-1.283.993-2.144 0-.86-.28-1.478-.838-1.922-.357-.284-.895-.513-1.614-.684v-.006zm9.43 4.88c-.06-.086-.092-.248-.106-.486a24.58 24.58 0 01-.011-.804v-3.193c0-.84-.296-1.41-.885-1.713-.59-.302-1.264-.453-2.024-.453-1.166 0-1.991.304-2.47.919-.301.393-.47.894-.51 1.504h1.742c.043-.268.13-.483.256-.64.18-.212.488-.32.923-.32.382 0 .675.055.875.164.197.107.298.304.298.59 0 .233-.13.407-.388.517-.148.063-.386.116-.724.16l-.617.075c-.705.089-1.237.24-1.598.447-.66.384-.988 1.003-.988 1.86 0 .66.202 1.171.614 1.53.412.36.93.54 1.558.54a2.61 2.61 0 001.327-.338 3.77 3.77 0 00.867-.697c.01.158.029.298.05.422.02.124.06.257.114.395h1.964v-.268a.668.668 0 01-.267-.21zm-1.917-2.23c-.015.61-.186 1.029-.518 1.258-.333.23-.697.344-1.093.344a.973.973 0 01-.632-.207c-.173-.139-.26-.364-.26-.674 0-.35.141-.606.426-.774.168-.096.445-.18.831-.249l.412-.075c.206-.04.366-.08.484-.125a2.11 2.11 0 00.352-.175v.675l-.002.002zm12.799-3.6c-.242-.299-.51-.508-.805-.626a2.381 2.381 0 00-.901-.18c-.46 0-.87.096-1.244.289-.349.191-.641.49-.878.9a2.062 2.062 0 00-.598-.836c-.325-.233-.752-.352-1.278-.352-.558 0-1.013.137-1.363.41-.2.154-.412.411-.635.773v-1.013h-1.754v6.947h1.831v-4.19c0-.378.047-.664.148-.855.177-.335.524-.505 1.038-.505.443 0 .742.172.894.505.085.189.127.49.127.9v4.145h1.82v-4.144c0-.311.046-.575.144-.797.191-.42.534-.625 1.033-.625.431 0 .725.162.888.484.083.171.126.388.126.652v4.434h1.85l.015-4.389c0-.45-.021-.793-.065-1.028a2 2 0 00-.391-.892l-.002-.007zm7.875 5.83c-.056-.086-.092-.248-.106-.486a28.49 28.49 0 01-.013-.804v-3.193c0-.84-.296-1.41-.885-1.713-.59-.302-1.264-.453-2.024-.453-1.166 0-1.991.304-2.47.919-.301.393-.47.894-.51 1.504h1.744a1.33 1.33 0 01.256-.64c.18-.212.487-.32.919-.32.385 0 .677.055.877.164.2.107.298.304.298.59 0 .233-.13.407-.39.517-.146.063-.384.116-.72.16l-.62.075c-.703.089-1.232.24-1.597.447-.66.384-.988 1.003-.988 1.86 0 .66.204 1.171.614 1.53.412.36.928.54 1.556.54a2.61 2.61 0 001.328-.338c.324-.193.615-.424.866-.697.014.158.029.298.05.422.02.124.06.257.113.395h1.966v-.268a.675.675 0 01-.27-.21h.006zm-1.917-2.23c-.015.61-.186 1.029-.517 1.258-.332.23-.697.344-1.09.344a.968.968 0 01-.634-.207c-.175-.139-.262-.364-.262-.674 0-.35.141-.606.426-.774.17-.096.445-.18.831-.249l.41-.075c.206-.04.368-.08.486-.125a1.98 1.98 0 00.352-.175v.675l-.002.002zm7.126-4.42c-.54 0-.979.143-1.318.428-.206.172-.45.49-.73.954v-1.214h-1.722v6.963h1.82v-3.328c0-.559.07-.97.208-1.24.25-.476.738-.715 1.464-.715.056 0 .126 0 .216.007.089.004.19.011.304.024v-1.866l-.157-.009-.085-.003zm3.158-2.344h-1.835v1.68h1.835v-1.68zm0 2.51h-1.835v6.963h1.835v-6.963zm3.787-1.876h-1.785v1.942h-.962v1.294h.962v4.289c0 .433.101.753.303.964.313.328.897.477 1.75.446l.854-.03v-1.362l-.181.009-.175.003c-.367 0-.585-.034-.659-.103-.07-.071-.107-.25-.107-.534v-3.68h1.12v-1.294h-1.12V54.91zm7.975 3.047a2.8 2.8 0 00-1.193-1.029 3.914 3.914 0 00-1.623-.325c-1.013 0-1.838.322-2.472.966-.634.644-.95 1.57-.95 2.776 0 1.287.352 2.215 1.053 2.789a3.749 3.749 0 002.434.855c1.112 0 1.978-.338 2.6-1.016.397-.426.619-.846.666-1.26h-1.845c-.107.206-.23.365-.372.483-.255.211-.589.319-1.002.319-.387 0-.719-.088-.993-.26-.455-.283-.697-.772-.724-1.471h5.031c.009-.603-.01-1.063-.059-1.382a3.456 3.456 0 00-.553-1.442l.002-.003zm-4.376 1.622c.065-.456.224-.812.48-1.08.256-.266.614-.397 1.078-.397.426 0 .783.126 1.071.375.287.25.449.617.482 1.102h-3.111zm9.65-2.959c-.54 0-.979.143-1.318.428-.206.172-.45.49-.729.954v-1.214h-1.723v6.963h1.82v-3.328c0-.559.07-.97.208-1.24.251-.476.738-.715 1.464-.715.056 0 .126 0 .217.007.088.004.189.011.303.024v-1.866l-.157-.009-.085-.003zm4.162 2.618h-3.536v1.728h3.536v-1.728zm7.725-.54c.312-.162.549-.34.713-.537.287-.35.43-.812.43-1.387 0-.576-.143-1.036-.428-1.437-.477-.653-1.28-.984-2.421-1.004h-4.512v9.418h4.207c.476 0 .915-.042 1.321-.128a2.585 2.585 0 001.057-.473c.265-.2.483-.45.659-.74a2.77 2.77 0 00.417-1.503c0-.557-.121-1-.363-1.38-.242-.38-.603-.657-1.078-.831l-.002.002zm-4.355-2.727h2.033c.446 0 .815.047 1.105.147.332.142.5.43.5.869 0 .396-.126.671-.379.828-.254.154-.583.233-.989.233h-2.27V55.97zm3.212 5.98c-.224.11-.54.163-.944.163h-2.266v-2.51h2.298c.403.006.712.058.934.16.397.186.594.519.594 1.01 0 .58-.202.972-.614 1.176h-.002zm8.201-1.377c0 .448-.06.809-.177 1.08-.23.504-.648.755-1.262.755-.479 0-.8-.178-.963-.53-.093-.2-.14-.498-.14-.895v-4.196h-1.851v4.196c0 .797.101 1.4.298 1.807.352.741 1.04 1.113 2.058 1.113.354 0 .665-.05.926-.14.262-.095.535-.27.82-.525.088-.08.172-.175.238-.282.069-.106.11-.17.127-.193v.985h1.753v-6.963h-1.831v3.786l.004.002zm7.409-3.954c-.567 0-1.036.14-1.406.423-.208.157-.424.415-.656.774v-1.014h-1.749v6.948h1.805v-3.768c0-.432.06-.783.177-1.061.226-.526.643-.787 1.25-.787.496 0 .83.18 1.005.537.1.195.147.477.147.843v4.234h1.85v-4.687c0-.872-.227-1.498-.677-1.875-.455-.379-1.033-.566-1.746-.566zm8.558-2.275v3.324a2.209 2.209 0 00-.791-.77 2.212 2.212 0 00-1.117-.276c-.908 0-1.634.34-2.176 1.023-.543.678-.816 1.614-.816 2.803 0 1.03.275 1.875.827 2.534.553.658 1.23.986 2.037.986.489 0 .901-.093 1.231-.28.329-.188.621-.488.881-.901v.963h1.755v-9.404h-1.831v-.002zm-.348 7.514c-.266.384-.656.576-1.167.576s-.893-.193-1.142-.581c-.251-.386-.376-.9-.376-1.542 0-.597.125-1.096.37-1.5.246-.402.634-.602 1.165-.602.343 0 .648.11.913.333.424.366.639.976.639 1.827 0 .61-.131 1.104-.399 1.49h-.003z" fill="#E30613"/><path d="M150.012 13.322c0-3.447-1.444-9.16-11.114-9.16H116.83l-.946 4.155c1.164 1.933 1.67 4.046 1.467 6.216l-.084.91h-3.005l-2.152 9.46c1.732 2.04 2.623 4.541 2.623 7.467 0 5.48-2.301 10.036-6.654 13.205h23.492c9.652 0 15.419-4.48 15.419-12.015 0-2.29-.578-6.418-4.44-8.348l-2.37-1.186 2.556-.683c4.557-1.218 7.276-4.962 7.276-10.02zm-11.28 19.572c-.394 2.73-2.811 5.666-7.186 5.666h-13.729l2.837-11.784h12.28c1.9 0 3.535.688 4.608 1.938.977 1.136 1.41 2.66 1.191 4.18h-.001zm1.61-16.706c-.402 3.321-2.777 5.225-6.512 5.225h-12.117l2.642-11.029h11.163c1.298 0 2.529.59 3.47 1.66 1.022 1.166 1.527 2.713 1.354 4.143z" fill="#FE0"/><path d="M112.742 32.37c0-5.76-4.064-9.477-12.078-11.05-5.841-1.144-10.882-2.133-10.882-6.742 0-3.456 3.105-5.777 7.727-5.777s7.688 1.86 8.318 4.634h9.58c-.036-2.037-.854-3.953-2.436-5.706-3.092-3.422-8.873-5.721-14.391-5.721-5.176 0-9.966 1.434-13.485 4.04-3.38 2.504-5.241 5.815-5.241 9.328 0 7.563 2.92 10.463 13.015 12.929l.618.15c4.515 1.093 8.411 2.04 8.411 6.108 0 3.775-3.17 6.731-7.22 6.731-5.586 0-9.054-3.045-9.439-8.29h-9.574v.054c-.12 3.773.982 6.853 3.28 9.368 3.205 3.508 8.539 5.44 15.018 5.44 9.046 0 18.783-4.85 18.783-15.495l-.004-.002z" fill="#FE0"/><path d="M77.481 43.784c-2.836-3.103-4.132-7.224-3.75-11.919l.075-.92h3.146L71.341 4.158h-9.704L36.375 45.52h9.458l4.23-6.89h18.43l1.17 6.966.075.268h10.08a15.69 15.69 0 01-2.338-2.08l.001.001zM53.693 32.74l11.062-18.483 2.972 18.483H53.693z" fill="#FE0"/><path d="M53.693 32.737h14.034l-2.972-18.483-11.062 18.483zm3.524-2.006l6.44-10.76 1.731 10.76h-8.171zm83.123-14.543c.175-1.431-.332-2.978-1.354-4.143-.942-1.07-2.172-1.66-3.47-1.66h-11.163l-2.641 11.028h12.116c3.736 0 6.11-1.904 6.512-5.226zm-14.418-3.798h9.594c.719 0 1.423.35 1.981.983.639.73.973 1.715.87 2.569-.278 2.299-1.807 3.464-4.539 3.464h-9.587l1.681-7.017v.001z" fill="#E30613"/><path d="M145.219 24.575c4.233-1.933 6.781-6.08 6.781-11.253 0-3.163-1.022-5.857-2.957-7.798-2.275-2.282-5.689-3.416-10.147-3.416h-23.655l-.937 4.126C110.785 2.443 104.637 0 98.578 0 86.964 0 77.86 6.753 77.86 15.376c0 4.46 1.003 7.459 3.249 9.72 2.204 2.22 5.58 3.764 11.29 5.157l.62.15c4.526 1.1 6.886 1.78 6.886 4.16 0 2.694-2.246 4.725-5.23 4.725-6.513 0-7.487-4.6-7.487-7.34v-1.002h-8.215L72.94 2.113H60.546L32.782 47.605h14.13l4.264-6.97h15.639l1.17 6.97h14.804c3.14 1.476 6.939 2.263 11.174 2.263 3.734 0 7.444-.809 10.622-2.263h26.988c10.737 0 17.406-5.383 17.406-14.045 0-3.824-1.345-6.992-3.757-8.985h-.003zm-65.401 21.29h-10.08l-.074-.268-1.17-6.966h-18.43l-4.23 6.89h-9.46L61.638 4.16h9.704l5.611 26.785h-3.147l-.074.921c-.382 4.695.914 8.816 3.75 11.92.696.76 1.48 1.453 2.339 2.08l-.002-.002zm14.14 2c-6.48 0-11.813-1.931-15.018-5.439-2.298-2.515-3.398-5.595-3.28-9.368v-.053h9.574c.386 5.244 3.853 8.29 9.439 8.29 4.05 0 7.22-2.957 7.22-6.732 0-4.068-3.896-5.015-8.412-6.109l-.617-.15c-10.096-2.464-13.016-5.363-13.016-12.928 0-3.512 1.862-6.823 5.242-9.327 3.518-2.607 8.308-4.041 13.485-4.041 5.515 0 11.298 2.299 14.391 5.72 1.582 1.754 2.399 3.67 2.435 5.707h-9.579c-.629-2.774-3.873-4.634-8.318-4.634-4.445 0-7.727 2.32-7.727 5.777 0 4.61 5.04 5.598 10.881 6.743 8.015 1.57 12.079 5.29 12.079 11.049 0 10.644-9.735 15.494-18.783 15.494l.004.001zm18.251-32.42l-1.782 7.838c-2.267-1.822-5.411-3.15-9.392-3.93-5.916-1.161-9.263-1.953-9.263-4.773 0-2.82 3.087-3.771 5.734-3.771 3.102 0 6.436 1.14 6.436 3.633v1.005h8.267v-.002zm19.359 30.132h-23.493c4.351-3.169 6.655-7.723 6.655-13.206 0-2.925-.89-5.426-2.623-7.466l2.152-9.46h3.004l.085-.91c.202-2.17-.304-4.283-1.468-6.216l.946-4.154h22.068c9.67 0 11.115 5.712 11.115 9.16 0 5.056-2.721 8.802-7.276 10.02l-2.557.682 2.371 1.187c3.861 1.931 4.439 6.06 4.439 8.348 0 7.537-5.765 12.015-15.418 12.015z" fill="#E30613"/><path d="M132.931 26.776H120.65l-2.836 11.784h13.728c4.377 0 6.792-2.936 7.186-5.666.219-1.52-.215-3.044-1.192-4.18-1.072-1.25-2.708-1.938-4.607-1.938h.002zm3.831 5.83c-.199 1.365-1.542 3.946-5.218 3.946h-11.201l1.874-7.77h10.714c1.329 0 2.403.431 3.103 1.245.598.697.862 1.636.728 2.58z" fill="#E30613"/></svg>