<svg width="35" height="35" fill="none" xmlns="http://www.w3.org/2000/svg"><rect x=".5" y=".5" width="34" height="34" rx="3.5" fill="#3359B7"/><rect x=".5" y=".5" width="34" height="34" rx="3.5" stroke="#F8F8F8"/><path d="M11.407 10.112c0 .56-.233 1.097-.646 1.492a2.253 2.253 0 01-1.559.618 2.254 2.254 0 01-1.557-.62A2.067 2.067 0 017 10.11c0-.56.233-1.097.646-1.492A2.254 2.254 0 019.205 8a2.25 2.25 0 011.557.619c.413.396.645.933.645 1.493zm.066 3.673H7.066V27h4.407V13.785zm6.963 0h-4.385V27h4.341v-6.935c0-3.863 5.256-4.222 5.256 0V27H28v-8.37c0-6.512-7.779-6.27-9.608-3.072l.044-1.773z" fill="#F8F8F8"/></svg>